<mxfile host="Electron" agent="Mozilla/5.0 (Windows NT 10.0; Win64; x64) AppleWebKit/537.36 (KHTML, like Gecko) draw.io/28.0.6 Chrome/138.0.7204.100 Electron/37.2.3 Safari/537.36" version="28.0.6" pages="2">
  <diagram name="Launcher" id="1Ji7Bc1QSne6C3BVtPyo">
    <mxGraphModel dx="1191" dy="1005" grid="1" gridSize="10" guides="1" tooltips="1" connect="1" arrows="1" fold="1" page="1" pageScale="1" pageWidth="850" pageHeight="1100" math="0" shadow="0">
      <root>
        <mxCell id="0" />
        <mxCell id="1" parent="0" />
        <mxCell id="bI8uq5raj5t6-0ASxQKG-1" value="" style="shape=cylinder3;whiteSpace=wrap;html=1;boundedLbl=1;backgroundOutline=1;size=15;" parent="1" vertex="1">
          <mxGeometry x="240" y="240" width="80" height="320" as="geometry" />
        </mxCell>
        <mxCell id="bI8uq5raj5t6-0ASxQKG-5" value="" style="shape=cylinder3;whiteSpace=wrap;html=1;boundedLbl=1;backgroundOutline=1;size=15;" parent="1" vertex="1">
          <mxGeometry x="245" y="126.25" width="70" height="73.75" as="geometry" />
        </mxCell>
        <mxCell id="bI8uq5raj5t6-0ASxQKG-2" value="outer&lt;br&gt;63 mm" style="rounded=0;whiteSpace=wrap;html=1;" parent="1" vertex="1">
          <mxGeometry x="80" y="280" width="120" height="60" as="geometry" />
        </mxCell>
        <mxCell id="bI8uq5raj5t6-0ASxQKG-3" value="inner&lt;div&gt;60 mm&lt;/div&gt;" style="rounded=0;whiteSpace=wrap;html=1;" parent="1" vertex="1">
          <mxGeometry x="80" y="360" width="120" height="60" as="geometry" />
        </mxCell>
        <mxCell id="bI8uq5raj5t6-0ASxQKG-4" value="" style="shape=or;whiteSpace=wrap;html=1;rotation=-90;" parent="1" vertex="1">
          <mxGeometry x="205" y="40" width="150" height="86.25" as="geometry" />
        </mxCell>
        <mxCell id="bI8uq5raj5t6-0ASxQKG-6" value="" style="shape=cylinder3;whiteSpace=wrap;html=1;boundedLbl=1;backgroundOutline=1;size=15;" parent="1" vertex="1">
          <mxGeometry x="240" y="600" width="80" height="250" as="geometry" />
        </mxCell>
        <mxCell id="bI8uq5raj5t6-0ASxQKG-7" value="" style="shape=trapezoid;perimeter=trapezoidPerimeter;whiteSpace=wrap;html=1;fixedSize=1;rotation=-90;" parent="1" vertex="1">
          <mxGeometry x="105" y="695" width="210" height="60" as="geometry" />
        </mxCell>
        <mxCell id="bI8uq5raj5t6-0ASxQKG-8" value="" style="shape=trapezoid;perimeter=trapezoidPerimeter;whiteSpace=wrap;html=1;fixedSize=1;rotation=-90;flipH=0;flipV=1;" parent="1" vertex="1">
          <mxGeometry x="245" y="695" width="210" height="60" as="geometry" />
        </mxCell>
        <mxCell id="bI8uq5raj5t6-0ASxQKG-9" value="" style="shape=cylinder3;whiteSpace=wrap;html=1;boundedLbl=1;backgroundOutline=1;size=15;" parent="1" vertex="1">
          <mxGeometry x="450" y="650" width="60" height="190" as="geometry" />
        </mxCell>
        <mxCell id="bI8uq5raj5t6-0ASxQKG-10" value="E12-6 Motor" style="rounded=0;whiteSpace=wrap;html=1;" parent="1" vertex="1">
          <mxGeometry x="575" y="580" width="240" height="40" as="geometry" />
        </mxCell>
        <mxCell id="bI8uq5raj5t6-0ASxQKG-11" value="" style="shape=image;verticalLabelPosition=bottom;labelBackgroundColor=default;verticalAlign=top;aspect=fixed;imageAspect=0;image=data:image/jpeg,/9j/4AAQSkZJRgABAQEAeAB4AAD/4RDsRXhpZgAATU0AKgAAAAgABAE7AAIAAAALAAAISodpAAQAAAABAAAIVpydAAEAAAAWAAAQzuocAAcAAAgMAAAAPgAAAAAc6gAAAAgAAAAAAAAAAAAAAAAAAAAAAAAAAAAAAAAAAAAAAAAAAAAAAAAAAAAAAAAAAAAAAAAAAAAAAAAAAAAAAAAAAAAAAAAAAAAAAAAAAAAAAAAAAAAAAAAAAAAAAAAAAAAAAAAAAAAAAAAAAAAAAAAAAAAAAAAAAAAAAAAAAAAAAAAAAAAAAAAAAAAAAAAAAAAAAAAAAAAAAAAAAAAAAAAAAAAAAAAAAAAAAAAAAAAAAAAAAAAAAAAAAAAAAAAAAAAAAAAAAAAAAAAAAAAAAAAAAAAAAAAAAAAAAAAAAAAAAAAAAAAAAAAAAAAAAAAAAAAAAAAAAAAAAAAAAAAAAAAAAAAAAAAAAAAAAAAAAAAAAAAAAAAAAAAAAAAAAAAAAAAAAAAAAAAAAAAAAAAAAAAAAAAAAAAAAAAAAAAAAAAAAAAAAAAAAAAAAAAAAAAAAAAAAAAAAAAAAAAAAAAAAAAAAAAAAAAAAAAAAAAAAAAAAAAAAAAAAAAAAAAAAAAAAAAAAAAAAAAAAAAAAAAAAAAAAAAAAAAAAAAAAAAAAAAAAAAAAAAAAAAAAAAAAAAAAAAAAAAAAAAAAAAAAAAAAAAAAAAAAAAAAAAAAAAAAAAAAAAAAAAAAAAAAAAAAAAAAAAAAAAAAAAAAAAAAAAAAAAAAAAAAAAAAAAAAAAAAAAAAAAAAAAAAAAAAAAAAAAAAAAAAAAAAAAAAAAAAAAAAAAAAAAAAAAAAAAAAAAAAAAAAAAAAAAAAAAAAAAAAAAAAAAAAAAAAAAAAAAAAAAAAAAAAAAAAAAAAAAAAAAAAAAAAAAAAAAAAAAAAAAAAAAAAAAAAAAAAAAAAAAAAAAAAAAAAAAAAAAAAAAAAAAAAAAAAAAAAAAAAAAAAAAAAAAAAAAAAAAAAAAAAAAAAAAAAAAAAAAAAAAAAAAAAAAAAAAAAAAAAAAAAAAAAAAAAAAAAAAAAAAAAAAAAAAAAAAAAAAAAAAAAAAAAAAAAAAAAAAAAAAAAAAAAAAAAAAAAAAAAAAAAAAAAAAAAAAAAAAAAAAAAAAAAAAAAAAAAAAAAAAAAAAAAAAAAAAAAAAAAAAAAAAAAAAAAAAAAAAAAAAAAAAAAAAAAAAAAAAAAAAAAAAAAAAAAAAAAAAAAAAAAAAAAAAAAAAAAAAAAAAAAAAAAAAAAAAAAAAAAAAAAAAAAAAAAAAAAAAAAAAAAAAAAAAAAAAAAAAAAAAAAAAAAAAAAAAAAAAAAAAAAAAAAAAAAAAAAAAAAAAAAAAAAAAAAAAAAAAAAAAAAAAAAAAAAAAAAAAAAAAAAAAAAAAAAAAAAAAAAAAAAAAAAAAAAAAAAAAAAAAAAAAAAAAAAAAAAAAAAAAAAAAAAAAAAAAAAAAAAAAAAAAAAAAAAAAAAAAAAAAAAAAAAAAAAAAAAAAAAAAAAAAAAAAAAAAAAAAAAAAAAAAAAAAAAAAAAAAAAAAAAAAAAAAAAAAAAAAAAAAAAAAAAAAAAAAAAAAAAAAAAAAAAAAAAAAAAAAAAAAAAAAAAAAAAAAAAAAAAAAAAAAAAAAAAAAAAAAAAAAAAAAAAAAAAAAAAAAAAAAAAAAAAAAAAAAAAAAAAAAAAAAAAAAAAAAAAAAAAAAAAAAAAAAAAAAAAAAAAAAAAAAAAAAAAAAAAAAAAAAAAAAAAAAAAAAAAAAAAAAAAAAAAAAAAAAAAAAAAAAAAAAAAAAAAAAAAAAAAAAAAAAAAAAAAAAAAAAAAAAAAAAAAAAAAAAAAAAAAAAAAAAAAAAAAAAAAAAAAAAAAAAAAAAAAAAAAAAAAAAAAAAAAAAAAAAAAAAAAAAAAAAAAAAAAAAAAAAAAAAAAAAAAAAAAAAAAAAAAAAAAAAAAAAAAAAAAAAAAAAAAAAAAAAAAAAAAAAAAAAAAAAAAAAAAAAAAAAAAAAAAAAAAAAAAAAAAAAAAAAAAAAAAAAAAAAAAAAAAAAAAAAAAAAAAAAAAAAAAAAAAAAAAAAAAAAAAAAAAAAAAAAAAAAAAAAAAAAAAAAAAAAAAAAAAAAAAAAAAAAAAAAAAAAAAAAAAAAAAAAAAAAAAAAAAAAAAAAAAAAAAAAAAAAAAAAAAAAAAAAAAAAAAAAAAAAAAAAAAAAAAAAAAAAAAAAAAAAAAAAAAAAAAAAAAAAAAAAAAAAAAAAAAAAAAAAAAAAAAAAAAAAAAAAAAAAAAAAAAAAAAAAAAAAAAAAAAAAAAAAAAAAAAAAAAAAAAAAAAAAAAAAAAAAAAAAAAAAAAAAAAAAAAAAAAAAAAAAAAAAAAAAAAAAAAAAAAAAAAAAAAAAAAAAAAAAAAAAAAAAAAAAAAAAAAAAAAAAAAAAAAAAAAAAAAAAAAAAAAAAAAAAAAAAAAAAAAAAAAAAAAAAAAAAAAAAAAAAAAAAAAAAAAAAAAAAAAAAAAAAAAAAAAAAAAAAAAAAAAAAAAAAAAAAAAAAAAAAAAAAAAAAAAAAAAAAAAAAAAAAAAAAAAAAAAAAAAAAAAAAAAAAAAAAAAAAAAAAAAAAAAAAAAAAAAAAAAAAAAAAAAAAAAAAAAAAAAAAAAAAAAAAAAAAAAAAAAAAAAAAAAAAAAAAAAAAAAAAAAAAAAAAAAAAAAAAAAAAAAAAAAAAAAAAAAAAAAAAAAAAAAAAAAAAAAAAAAAAAAAAAAAAAAAAAAAAAAAAAAAAAAAAAAAAAAAAAAAAAAAAAAAAAAAAAAAAAAAAAAAAAAAAAAAAAAAAAAAAAAFBldGVyIEJlcmcAAAAFkAMAAgAAABQAABCkkAQAAgAAABQAABC4kpEAAgAAAAM5MwAAkpIAAgAAAAM5MwAA6hwABwAACAwAAAiYAAAAABzqAAAACAAAAAAAAAAAAAAAAAAAAAAAAAAAAAAAAAAAAAAAAAAAAAAAAAAAAAAAAAAAAAAAAAAAAAAAAAAAAAAAAAAAAAAAAAAAAAAAAAAAAAAAAAAAAAAAAAAAAAAAAAAAAAAAAAAAAAAAAAAAAAAAAAAAAAAAAAAAAAAAAAAAAAAAAAAAAAAAAAAAAAAAAAAAAAAAAAAAAAAAAAAAAAAAAAAAAAAAAAAAAAAAAAAAAAAAAAAAAAAAAAAAAAAAAAAAAAAAAAAAAAAAAAAAAAAAAAAAAAAAAAAAAAAAAAAAAAAAAAAAAAAAAAAAAAAAAAAAAAAAAAAAAAAAAAAAAAAAAAAAAAAAAAAAAAAAAAAAAAAAAAAAAAAAAAAAAAAAAAAAAAAAAAAAAAAAAAAAAAAAAAAAAAAAAAAAAAAAAAAAAAAAAAAAAAAAAAAAAAAAAAAAAAAAAAAAAAAAAAAAAAAAAAAAAAAAAAAAAAAAAAAAAAAAAAAAAAAAAAAAAAAAAAAAAAAAAAAAAAAAAAAAAAAAAAAAAAAAAAAAAAAAAAAAAAAAAAAAAAAAAAAAAAAAAAAAAAAAAAAAAAAAAAAAAAAAAAAAAAAAAAAAAAAAAAAAAAAAAAAAAAAAAAAAAAAAAAAAAAAAAAAAAAAAAAAAAAAAAAAAAAAAAAAAAAAAAAAAAAAAAAAAAAAAAAAAAAAAAAAAAAAAAAAAAAAAAAAAAAAAAAAAAAAAAAAAAAAAAAAAAAAAAAAAAAAAAAAAAAAAAAAAAAAAAAAAAAAAAAAAAAAAAAAAAAAAAAAAAAAAAAAAAAAAAAAAAAAAAAAAAAAAAAAAAAAAAAAAAAAAAAAAAAAAAAAAAAAAAAAAAAAAAAAAAAAAAAAAAAAAAAAAAAAAAAAAAAAAAAAAAAAAAAAAAAAAAAAAAAAAAAAAAAAAAAAAAAAAAAAAAAAAAAAAAAAAAAAAAAAAAAAAAAAAAAAAAAAAAAAAAAAAAAAAAAAAAAAAAAAAAAAAAAAAAAAAAAAAAAAAAAAAAAAAAAAAAAAAAAAAAAAAAAAAAAAAAAAAAAAAAAAAAAAAAAAAAAAAAAAAAAAAAAAAAAAAAAAAAAAAAAAAAAAAAAAAAAAAAAAAAAAAAAAAAAAAAAAAAAAAAAAAAAAAAAAAAAAAAAAAAAAAAAAAAAAAAAAAAAAAAAAAAAAAAAAAAAAAAAAAAAAAAAAAAAAAAAAAAAAAAAAAAAAAAAAAAAAAAAAAAAAAAAAAAAAAAAAAAAAAAAAAAAAAAAAAAAAAAAAAAAAAAAAAAAAAAAAAAAAAAAAAAAAAAAAAAAAAAAAAAAAAAAAAAAAAAAAAAAAAAAAAAAAAAAAAAAAAAAAAAAAAAAAAAAAAAAAAAAAAAAAAAAAAAAAAAAAAAAAAAAAAAAAAAAAAAAAAAAAAAAAAAAAAAAAAAAAAAAAAAAAAAAAAAAAAAAAAAAAAAAAAAAAAAAAAAAAAAAAAAAAAAAAAAAAAAAAAAAAAAAAAAAAAAAAAAAAAAAAAAAAAAAAAAAAAAAAAAAAAAAAAAAAAAAAAAAAAAAAAAAAAAAAAAAAAAAAAAAAAAAAAAAAAAAAAAAAAAAAAAAAAAAAAAAAAAAAAAAAAAAAAAAAAAAAAAAAAAAAAAAAAAAAAAAAAAAAAAAAAAAAAAAAAAAAAAAAAAAAAAAAAAAAAAAAAAAAAAAAAAAAAAAAAAAAAAAAAAAAAAAAAAAAAAAAAAAAAAAAAAAAAAAAAAAAAAAAAAAAAAAAAAAAAAAAAAAAAAAAAAAAAAAAAAAAAAAAAAAAAAAAAAAAAAAAAAAAAAAAAAAAAAAAAAAAAAAAAAAAAAAAAAAAAAAAAAAAAAAAAAAAAAAAAAAAAAAAAAAAAAAAAAAAAAAAAAAAAAAAAAAAAAAAAAAAAAAAAAAAAAAAAAAAAAAAAAAAAAAAAAAAAAAAAAAAAAAAAAAAAAAAAAAAAAAAAAAAAAAAAAAAAAAAAAAAAAAAAAAAAAAAAAAAAAAAAAAAAAAAAAAAAAAAAAAAAAAAAAAAAAAAAAAAAAAAAAAAAAAAAAAAAAAAAAAAAAAAAAAAAAAAAAAAAAAAAAAAAAAAAAAAAAAAAAAAAAAAAAAAAAAAAAAAAAAAAAAAAAAAAAAAAAAAAAAAAAAAAAAAAAAAAAAAAAAAAAAAAAAAAAAAAAAAAAAAAAAAAAAAAAAAAAAAAAAAAAAAAAAAAAAAAAAAAAAAAAAAAAAAAAAAAAAAAAAAAAAAAAAAAAAAAAAAAAAAAAAAAAAAAAAAAAAAAAAAAAAAAAAAAAAAAAAAAAAAAAAAAAAAAAAAAAAAAAAAAAAAAAAAAAAAAAAAAAAAAAAAAAAAAAAAAAAAAAAAAAAAAAAAAAAAAAAAAAAAAAAAAAAAAAAAAAAAAAAAAAAAAAAAAAAAAAAAAAAAAAAAAAAAAAAAAAAAAAAAAAAAAAAAAAAAAAAAAAAAAAAAAAAAAAAAAAAAAAAAAAAAAAAAAAAAAAAAAAAAAAAAAAAAAAAAAAAAAAAAAAAAAAAAAAAAAAAAAAAAAAAAAAAAAAAAAAAAAAAAAAAAAAAAAAAAAAAAAAAAAAAAAAAAAAAAAAAAAAAAAAAAAAAAAAAAAAAAAAAAAAAAAAAAAAAAAAAAAAAAAAAAAAAAAAAAAAAAAAAAAAAAAAAAAAAAAAAAAAAAAAAAAAAAAAAAAAAAAAAAAAAAAAAAAAAAAAAAAAAAAAAAAAAAAMjAyMjowMjowOSAxNDowNDoxMwAyMDIyOjAyOjA5IDE0OjA0OjEzAAAAUABlAHQAZQByACAAQgBlAHIAZwAAAP/hCx1odHRwOi8vbnMuYWRvYmUuY29tL3hhcC8xLjAvADw/eHBhY2tldCBiZWdpbj0n77u/JyBpZD0nVzVNME1wQ2VoaUh6cmVTek5UY3prYzlkJz8+DQo8eDp4bXBtZXRhIHhtbG5zOng9ImFkb2JlOm5zOm1ldGEvIj48cmRmOlJERiB4bWxuczpyZGY9Imh0dHA6Ly93d3cudzMub3JnLzE5OTkvMDIvMjItcmRmLXN5bnRheC1ucyMiPjxyZGY6RGVzY3JpcHRpb24gcmRmOmFib3V0PSJ1dWlkOmZhZjViZGQ1LWJhM2QtMTFkYS1hZDMxLWQzM2Q3NTE4MmYxYiIgeG1sbnM6ZGM9Imh0dHA6Ly9wdXJsLm9yZy9kYy9lbGVtZW50cy8xLjEvIi8+PHJkZjpEZXNjcmlwdGlvbiByZGY6YWJvdXQ9InV1aWQ6ZmFmNWJkZDUtYmEzZC0xMWRhLWFkMzEtZDMzZDc1MTgyZjFiIiB4bWxuczp4bXA9Imh0dHA6Ly9ucy5hZG9iZS5jb20veGFwLzEuMC8iPjx4bXA6Q3JlYXRlRGF0ZT4yMDIyLTAyLTA5VDE0OjA0OjEzLjkyNTwveG1wOkNyZWF0ZURhdGU+PC9yZGY6RGVzY3JpcHRpb24+PHJkZjpEZXNjcmlwdGlvbiByZGY6YWJvdXQ9InV1aWQ6ZmFmNWJkZDUtYmEzZC0xMWRhLWFkMzEtZDMzZDc1MTgyZjFiIiB4bWxuczpkYz0iaHR0cDovL3B1cmwub3JnL2RjL2VsZW1lbnRzLzEuMS8iPjxkYzpjcmVhdG9yPjxyZGY6U2VxIHhtbG5zOnJkZj0iaHR0cDovL3d3dy53My5vcmcvMTk5OS8wMi8yMi1yZGYtc3ludGF4LW5zIyI+PHJkZjpsaT5QZXRlciBCZXJnPC9yZGY6bGk+PC9yZGY6U2VxPg0KCQkJPC9kYzpjcmVhdG9yPjwvcmRmOkRlc2NyaXB0aW9uPjwvcmRmOlJERj48L3g6eG1wbWV0YT4NCiAgICAgICAgICAgICAgICAgICAgICAgICAgICAgICAgICAgICAgICAgICAgICAgICAgICAgICAgICAgICAgICAgICAgICAgICAgICAgICAgICAgICAgICAgICAgICAgICAgICAKICAgICAgICAgICAgICAgICAgICAgICAgICAgICAgICAgICAgICAgICAgICAgICAgICAgICAgICAgICAgICAgICAgICAgICAgICAgICAgICAgICAgICAgICAgICAgICAgICAgIAogICAgICAgICAgICAgICAgICAgICAgICAgICAgICAgICAgICAgICAgICAgICAgICAgICAgICAgICAgICAgICAgICAgICAgICAgICAgICAgICAgICAgICAgICAgICAgICAgICAgCiAgICAgICAgICAgICAgICAgICAgICAgICAgICAgICAgICAgICAgICAgICAgICAgICAgICAgICAgICAgICAgICAgICAgICAgICAgICAgICAgICAgICAgICAgICAgICAgICAgICAKICAgICAgICAgICAgICAgICAgICAgICAgICAgICAgICAgICAgICAgICAgICAgICAgICAgICAgICAgICAgICAgICAgICAgICAgICAgICAgICAgICAgICAgICAgICAgICAgICAgIAogICAgICAgICAgICAgICAgICAgICAgICAgICAgICAgICAgICAgICAgICAgICAgICAgICAgICAgICAgICAgICAgICAgICAgICAgICAgICAgICAgICAgICAgICAgICAgICAgICAgCiAgICAgICAgICAgICAgICAgICAgICAgICAgICAgICAgICAgICAgICAgICAgICAgICAgICAgICAgICAgICAgICAgICAgICAgICAgICAgICAgICAgICAgICAgICAgICAgICAgICAKICAgICAgICAgICAgICAgICAgICAgICAgICAgICAgICAgICAgICAgICAgICAgICAgICAgICAgICAgICAgICAgICAgICAgICAgICAgICAgICAgICAgICAgICAgICAgICAgICAgIAogICAgICAgICAgICAgICAgICAgICAgICAgICAgICAgICAgICAgICAgICAgICAgICAgICAgICAgICAgICAgICAgICAgICAgICAgICAgICAgICAgICAgICAgICAgICAgICAgICAgCiAgICAgICAgICAgICAgICAgICAgICAgICAgICAgICAgICAgICAgICAgICAgICAgICAgICAgICAgICAgICAgICAgICAgICAgICAgICAgICAgICAgICAgICAgICAgICAgICAgICAKICAgICAgICAgICAgICAgICAgICAgICAgICAgICAgICAgICAgICAgICAgICAgICAgICAgICAgICAgICAgICAgICAgICAgICAgICAgICAgICAgICAgICAgICAgICAgICAgICAgIAogICAgICAgICAgICAgICAgICAgICAgICAgICAgICAgICAgICAgICAgICAgICAgICAgICAgICAgICAgICAgICAgICAgICAgICAgICAgICAgICAgICAgICAgICAgICAgICAgICAgCiAgICAgICAgICAgICAgICAgICAgICAgICAgICAgICAgICAgICAgICAgICAgICAgICAgICAgICAgICAgICAgICAgICAgICAgICAgICAgICAgICAgICAgICAgICAgICAgICAgICAKICAgICAgICAgICAgICAgICAgICAgICAgICAgICAgICAgICAgICAgICAgICAgICAgICAgICAgICAgICAgICAgICAgICAgICAgICAgICAgICAgICAgICAgICAgICAgICAgICAgIAogICAgICAgICAgICAgICAgICAgICAgICAgICAgICAgICAgICAgICAgICAgICAgICAgICAgICAgICAgICAgICAgICAgICAgICAgICAgICAgICAgICAgICAgICAgICAgICAgICAgCiAgICAgICAgICAgICAgICAgICAgICAgICAgICAgICAgICAgICAgICAgICAgICAgICAgICAgICAgICAgICAgICAgICAgICAgICAgICAgICAgICAgICAgICAgICAgICAgICAgICAKICAgICAgICAgICAgICAgICAgICAgICAgICAgICAgICAgICAgICAgICAgICAgICAgICAgICAgICAgICAgICAgICAgICAgICAgICAgICAgICAgICAgICAgICAgICAgICAgICAgIAogICAgICAgICAgICAgICAgICAgICAgICAgICAgICAgICAgICAgICAgICAgICAgICAgICAgICAgICAgICAgICAgICAgICAgICAgICAgICAgICAgICAgICAgICAgICAgICAgICAgCiAgICAgICAgICAgICAgICAgICAgICAgICAgICAgICAgICAgICAgICAgICAgICAgICAgICAgICAgICAgICAgICAgICAgICAgICAgICAgICAgICAgICAgICAgICAgICAgICAgICAKICAgICAgICAgICAgICAgICAgICAgICAgICAgICAgICAgICAgICAgICAgICAgICAgICAgICAgICAgICAgICAgICAgICAgICAgICAgICAgICAgICAgICAgICAgICAgICAgICAgIAogICAgICAgICAgICAgICAgICAgICAgICAgICAgPD94cGFja2V0IGVuZD0ndyc/Pv/bAEMABwUFBgUEBwYFBggHBwgKEQsKCQkKFQ8QDBEYFRoZGBUYFxseJyEbHSUdFxgiLiIlKCkrLCsaIC8zLyoyJyorKv/bAEMBBwgICgkKFAsLFCocGBwqKioqKioqKioqKioqKioqKioqKioqKioqKioqKioqKioqKioqKioqKioqKioqKioqKv/AABEIAi4B/gMBIgACEQEDEQH/xAAfAAABBQEBAQEBAQAAAAAAAAAAAQIDBAUGBwgJCgv/xAC1EAACAQMDAgQDBQUEBAAAAX0BAgMABBEFEiExQQYTUWEHInEUMoGRoQgjQrHBFVLR8CQzYnKCCQoWFxgZGiUmJygpKjQ1Njc4OTpDREVGR0hJSlNUVVZXWFlaY2RlZmdoaWpzdHV2d3h5eoOEhYaHiImKkpOUlZaXmJmaoqOkpaanqKmqsrO0tba3uLm6wsPExcbHyMnK0tPU1dbX2Nna4eLj5OXm5+jp6vHy8/T19vf4+fr/xAAfAQADAQEBAQEBAQEBAAAAAAAAAQIDBAUGBwgJCgv/xAC1EQACAQIEBAMEBwUEBAABAncAAQIDEQQFITEGEkFRB2FxEyIygQgUQpGhscEJIzNS8BVictEKFiQ04SXxFxgZGiYnKCkqNTY3ODk6Q0RFRkdISUpTVFVWV1hZWmNkZWZnaGlqc3R1dnd4eXqCg4SFhoeIiYqSk5SVlpeYmZqio6Slpqeoqaqys7S1tre4ubrCw8TFxsfIycrS09TV1tfY2dri4+Tl5ufo6ery8/T19vf4+fr/2gAMAwEAAhEDEQA/APpGiiigAooooAKKKKACiiigAooooAKKKKACivNfhN4t1vxNrnjW31u9+0xaXq721ovlInlRhnAX5QM9Bycmum8V/EHwt4I8n/hKNYhsXn5jj2PI7D12IC2PfGKL6J97fjqHVrt+h0lFc1P8RPClv4WtvEkutQf2RcyrDHdorOu9uikAEqeDnIGO+Kh8P/E/wb4p12XRtA16C8v4wxMSo67wvXYzKFf1+UnjnpTs72Dpc6uiuD1f42fDzQ9Vn07UvEkSXVu2yVIreaYKw6jciFcjuM8VzHif4++HbDxR4Zh0vWUOlXLPNqczWcuUhKfusApnlj2BPHOKSd7eYPS57HRXiOr/ABLsNL+Oem6le+I5rbwtceHFu0R5JBDIXZtrCHqWIx/Du/KvVfDHi3Q/GWlHUvDOox39qHMbOqspVh2KsAQeR1FNJtX/AK3a/QV9f67XNmiiikMKKKKACiiigAooooAKKKKACiiigCOH/Vn/AH2/9CNSVHD/AKs/77f+hGpKACisTxZq+p6NoyyaDpL6rqFxOlvBCMiNGc48yRgCVjUck/h3zXPWPifxVpHjjSPD/jCLR7ldaima2uNKWSMwvEoZldJGbKkHhgRz1FC1dv67g9DvKK5bx34pvPDOn6dHpNpDc6lq1/Hp9oLmQpCkjgnc5HO0BTwOT0FUNI8T+I7Hx5b+F/F8WmTyX9nJdWl3paSIq+WQGSRHZiPvcMDg9MULV6f1pf8AIHov672/M7iisLX9S1Ky1nQ4NPutGggu7kx3SahKyTSrjO23A4Z+pwe1T3vizw7pqudR1/S7QRzGBzPeRptkABKHJ4bBBx1wRQBrUU2ORJolkidXRwGVlOQwPQg1zHxC1+90Hwyi6KVGraldRafYF13BZpWwHI77RubH+zR5AtTqaK4jW/E+vf8ACX2vhDwslhJqa2Avry+1JWMUce7YMRoQWZmzxkACrPg/xTqepa1rPh3xLb2kOsaOYmkksWbybiKUEo6hvmU8EFSTg9+aFrsG2/8AVzrqK5vWIfHD6nI3h+/8Pw2OBsS+sp5JQcc5ZZVB59qyvhp4o8QeKk1q41v+zJLG0vTaWV1YQSRLclMiR8O7ZXdgAjrg0LUHodzRWZqviXQtBkiTXNa0/TXm5jW8ukhL/TcRmnXniHRdPBN/q9hagQ/aCZ7lE/dZA8zk/dyQM9MmgDRorHm8XeG7eG0luPEOlRR3wzau97Gq3Azj5CW+bnjjNZeva7qGhePvD8csqtomseZYsmwZhusF423dSGCsuOmQDR1t/X9dA6XOsooooAKKKKACiiigAooooAKKKKACiiigAooooAKKKKACiiigAooooAKKKKACiiigAooooA8A+FHjTw54W8V/ECLxFrNpp0k+uyNEtw+0uA7gkVm65fSz/tA3mr2njq08L2mpaVFJperXNnFcwzRBVDIrSkKnzBznPPTvXuNx4A8HXdzJcXXhPQ5p5XLySyabCzOxOSSSuSSe9W7nwt4fvdLg0280LTbiwtv9Ray2cbRRf7qEYX8BSWijfdK34WG95ef+dz5v8V6Rp2m/A/Vm0vxXb+J4rrxNFJPPb2Yt40mK/OFUEqQeDlfl9K9C+IFvDZ/G74Xm0hjgObiEeWoXCBFAXjsMnj3NeoS+G9Cn0iPSp9F0+TTomDR2b2qGFCOhCEYB5Papb7RdO1C4gurqxtpLu1DfZbl4FaS3JGCUYjKnp09Kq9mn2d/wSsJrmTXdNfe7nzHpNp/bOi654Jj8XeF9J8NNrsu86tIItTwrqcqpO0gkYBJzwenSvRviXeafoPxa+Gd3fXUVrp1t9qU3MzhY1HlqBluncVjyfBLxa+m3OiTjwVfW1y8m/X7ywkfVSHYsXLdC/PHzfjXrtn4L0WPwnpnh/VLG21e002COKL7fAk2Si7d2GBAP0pR0UX2t89LBLWUvO/yuzziV7LVP2rdIu4TDdwN4b8+3lGHU5Z8Op+h6j1qx8IVWH4pfE+CJQkS6pGwRRgAkyZOK9Pj0PSYdQiv4dLso7yGEW8VytugkSIdEDYyF9hxT7TSNN0+7urqw0+1tri8YPczQwqjzsM4LsBljyeT601Zfc198rid2vmvwVi5RRRSGFFFFABRRRQAUUUUAFFFFABRRRQBHD/qz/vt/6EakqOH/AFZ/32/9CNSUAYnifxZp3hG2s7rWRMlpc3SWrXKKDHbls4aQkjamRjPOCRXnzJp2jfHLRZvC+qPqs+sRXA1SGW5F39mt1Xero7ZaJd5xt3bTwAOK9YubaC8tpLe7hjnglUrJFKgZXB6gg8EVS0nw7omgrIND0ew00S48wWdqkO/HrtAzQtHf+vT+v+CD1Vv69Tzv4pa5pmuaV4cs49Us/wDhG9V1TyL/AFaB45Fg2AlQshysbFhjf1XHUVW0y207w58btJtPCupyax/aljMuqLc3P2yW0jjUGNxM2XQMxxtLbTnp0r0+LQdIg0ltKg0qyj0587rNLZBC2Tk5QDHJ5PFN0nw/o2gJImhaRYaYspBkWztkhDkdM7QM0R0d/wCtrf8AB/q4S1X9d73/AK/4BxfxI/5Hv4d/9hiT/wBEtVTwN4f0jU/GHxCuNR0y0u5n1gwF54Vc+X5KHbyOBk/jXpFzp1leXFtPeWdvcTWr+ZbySxKzQtjG5SR8pxxkUW1hZ2ctxJaWkEEl1J5s7xRhTK+MbmI+8cADJ9KSWjXe/wCPL/kNu9vl+HN/mef/AAb1exs/hb4csb7UIIbm4a4itIJpgHlCTONqAnLYGOnQYq78RyIdc8D3cw/0eLxAiOc8BnikRCf+BEfnXVQ+HdFtzZ+Ro9hF9gZ2tNlqg+zl/vFMD5Se+MZqDxX4ct/Fnhq60i6leDzgGinjHzQSKQySL7qwBqm7tS80/udxW3XdP8bnNfEbTNF0wDxve6xqGh32nW5txc6e0Ze5RjlYSkisr5boMdTntVT4daMfBnh3UPFPjrUvs+qa3Klxez6jcKv2dPuxRM52rkBsHAAycAAAV3dxpNlfw2q6ta2+oPaussUlxArlJVHEi5Hyt7jpUmoadY6tZPZ6pZ297ayEF4LmJZEbByMqwIOCAaS929v6XX7/AOuob2v/AF/wxyXxO1+7sfDcGkeH3B1vxDMLCwKn7gYfPN9ETJz2OK6Tw7oVp4Z8N2Gi6cu22soViT1bHVj7k5J9zVl9NsZb63vZbK3e7tlZILholMkSt94K2MqD3A61ZoWifn/S/X7w3t/Xr+n3Hkvhc+H/APhY3jw+M/sH9rC8XyzqWziw8tfL2b/4OuccZxmphp/h/VfjdoH2K10+70uHwxJLZCKNHhQCdQrIB8vAJAx616DqvhvQtdkik1vRdP1J4eImvLVJSn0LA4/CrS6bYpfR3q2Vut1HD5CTiJd6R5zsDYyFyAcdOKI6W8v8mv8AghLW/n/mmeM6T4a0X/hEfitu0u0byL++ih3QqfKRYRIqpkfKA7swAxgnNaFzM938NfhTEzmW7uL/AEyRSTliEiLu34KDn616omk6dHDdxR6farHfMz3aLCoFwzDDFxj5iQMEnORWU3g+yPirStXUiODR7N7axsIo1SKAvgF1A77AFA6AZojo1/27/wCS3/MJa3/7e/8AJv8AI6CiiigAooooAKKKKACiiigAooooAKKKKACiiigAoqv+8/56t+Q/wo/ef89W/If4UAWKKr/vP+erfkP8KP3n/PVvyH+FAFiiq/7z/nq35D/Cj95/z1b8h/hQBYoqv+8/56t+Q/wo/ef89W/If4UAWKKr/vP+erfkP8KP3n/PVvyH+FAFiiq/7z/nq35D/Cj95/z1b8h/hQBYoqv+8/56t+Q/wo/ef89W/If4UAWKKr/vP+erfkP8KP3n/PVvyH+FAFiiq/7z/nq35D/Cj95/z1b8h/hQBYoqv+8/56t+Q/wo/ef89W/If4UAWKKr/vP+erfkP8KP3n/PVvyH+FAFiiq/7z/nq35D/Cj95/z1b8h/hQBYoqv+8/56t+Q/wo/ef89W/If4UAWKKr/vP+erfkP8KP3n/PVvyH+FAFiiq/7z/nq35D/Cj95/z1b8h/hQBYoqv+8/56t+Q/wo/ef89W/If4UASQ/6s/77f+hGpKqRb9h/esPmbsPU+1P/AHn/AD1b8h/hQBYoqv8AvP8Anq35D/Cj95/z1b8h/hQBYoqv+8/56t+Q/wAKP3n/AD1b8h/hQBYoqv8AvP8Anq35D/Cj95/z1b8h/hQBYoqv+8/56t+Q/wAKP3n/AD1b8h/hQBYoqv8AvP8Anq35D/Cj95/z1b8h/hQBYoqv+8/56t+Q/wAKP3n/AD1b8h/hQBYoqv8AvP8Anq35D/Cj95/z1b8h/hQBYoqv+8/56t+Q/wAKP3n/AD1b8h/hQBYoqv8AvP8Anq35D/Cj95/z1b8h/hQBYoqv+8/56t+Q/wAKP3n/AD1b8h/hQBYoqv8AvP8Anq35D/Cj95/z1b8h/hQBYoqv+8/56t+Q/wAKP3n/AD1b8h/hQBYoqv8AvP8Anq35D/Cj95/z1b8h/hQBYoqv+8/56t+Q/wAKP3n/AD1b8h/hQBYoqv8AvP8Anq35D/Cj95/z1b8h/hQAtFFFABRRRQAUUUUAFFFFABRRRQAUVzPjvx3pvw90ODVNYtry5hnuVtkSyjV33srEcMyjHynv6Vz8fxs0OC8gh8RaH4k8NRXD7I7rWtNMEJb03Bjj6ngdzQtdgeh6NRXN674n1DS/EOhWGneHbvVrTVJCs9/bN+7s1GMM3BGDnPJHTjJ4rpKOlwCiiigAooooAKKyfDfiXT/FWmPqGkO726XElvudduWRtpI9sjitagAooooAKKKKACiiigAooooAKKKKACiiigBkP+rP++3/AKEafTIf9Wf99v8A0I0+gAoqnq+safoOlzalrN5FZ2cAzJNK2APT6kngAcmsrw/478OeJ76Wy0bUTJdxRiVrea3kgk2H+ILIqkr7jI5o32DY6GisrxH4m0fwlo7ap4ivksrNWCeYysxLHoAqgkn2APAJ7VqKwZQy8gjIoAWiiigAooooAKKKKACiiigAooooAKKKKACiiigAooooAKKKKACiiigAooooAKKKKACiiigAooooAKKKKACiiigAooooAKKKKAPH/wBpP/kQtH/7DkH/AKBJXZfFW2srr4T+JE1NUMK6fLIu/tIq5Qj33BcVH8TvADfEXw3a6XHqv9lvb3iXaz/Z/OyVVhjbuX+9nOe1YN58J/EPiXyrTx78QbzW9JVw72Ftp0VkJiDkB2Qkke35EHmoceaDh3f6JfoUnaSl2X6s4jRNd1yHTPgvA2oXlul5JNFcRRzsq3ESsgjDgHDDbjGc9avfFXWtO0vVdZnuPixqtnq8UZfTdH01mSKF1XIjmEakMWbu5UgHnIr0fxD8PINZ8ReEdRtLxdPt/DMrPFaJb7llUhAFB3DYAE9D1rnZfgxdrq3iFtP8YXVjpPiCSWW8sY7GIyMzg5HnnLbMk/KAOOM96uTck7d5P77W/rp8yYLlST7L9b/ocrqHiPxF4q1b4XwxeIL/AEhte0+b7e9hJs8w7RuYL90McHBwdpOR0qPSdK8S6x4l8YeEpvHviGO08NKZrO4juttxK0i7lEsuNzquPu8ZyenArvLD4TfYtR8E3X9tb/8AhFLeSHb9kx9q3DGc7/kx/wACrU0j4f8A9leM/FWv/wBp+b/wkSRp5H2fb9n2qV+9uO7OfQUS68v978/d/roEel/7v/2x5HffE/xNcfCTwNClzqBv9enmgu7vTIRJePFDJsIiXj94wI54OR71teCJPEmpeItR8OM/xAtvDl9YF11DXoTDeWlwrD/Vz4IwR2/Tuemi+C1qvw20fw0+tTpqGi3D3Vjq9vCI3ikZ2fOzceORkbucA5FdB4V8J+ItJ1Sa/wDE/jW88QSPD5KQfZY7WBBnO7y1zluPvccE9acrNy87/itP6+ZKukvL/P8AyPI/hTHN4U+C+qeOYNW1a4ntYrtY9Mlus2e8NgP5WPvZwSc+tZWleJ/Gq2eleINLX4japrE0sc11Fc6eX0q4iY5YRqudowRhgPcAZ49Y8IfCeXwva6lo9z4jm1PwzexzIukS2iJ5fmkZJlBLMccdhyTioNH+FXiLRVtNNtPiPqieH7OUPDYR2kazBQ2Qhn6lexGMY4xTT99PyX4b/eOS0aXd/jt9xz+n2Ot+NPjL420afxhr2l6TYPbyJb6fdeW4YpwFYg7F+9lVAySM9K9tRdiKoJO0YyxyT+Ncn4e8Df2D4/8AEnib+0ftH9umL/RvI2+RsGPvbjuz9BXW1MdIRXlr6jlrOT89AooooAKKKKACiiigAooooAKKKKAGQ/6s/wC+3/oRp9Mh/wBWf99v/QjT6AM7WNC0zXVtBq9sLhbK5S7hVnYKsqZ2sQCA2Mng5HtXBwXsfjT4qWniLTMJoHhe3uYX1Lot5M4AZEP8SIBkt0z09a6bx94W1Pxh4dOkaZrx0WKZ/wDSnW2Mpnj7x5DoVB74OSOO5qv4b8MeJdBNnayeItMl0m1TyxY2+i+R8oGAA3nNjnnoc0le9/u+atcHt/X3f1/w3kvjLxToPjrwn4h8Q6jrumqIbWS30HR3vY/OXnDTvHnPmP0UY+Vfc173pOp2OraRFeaTe297bMuFmtpVkQkcEBlJHBqh4u8MReKfCOo6IsqWZvoTEJxCH8vnrtyM/mK2Y4Vit1iQAALjgYpSvytIHq0/X9DxODxZ48g+EVh4+k8RW9y6uqyaa9hGsUyGbyss4+YNkg5XaOMY7nrLTUvE3hz4m6LoWt68NctNbtbh/ms44DbSRAMdhTqpBxhskY61Y/4Vn/xaCLwN/a3+rK/6b9m67ZxN/q9/tj73v7Vt6p4V/tLx1oPiP7Z5X9jxXEf2fys+d5qhc7s/LjHoc+1aac3ld/dbT8Qeq/ruebJ4n8cH4b6h40/4SOJhpV3OBpxsIwlzFHOVKyPjcDt4BTb0Gckk1vR6v4q8P+NPCsOs66mrWniPzY5rX7FHCtq4j8wGNl+Yj+HDknHvWonw32/DDVPB/wDauf7Qe4f7X9n/ANX5spfGzdzjOOoz7Vpat4O/tTW/C+ofbvK/4R+R5PL8nd9o3R7MZ3Db696mOlr+X/B/r7glre397/7X+vvOmooooAKKKKACiiigAooooAKKKKACiiigAooooAKKKKACiiigAooooAKKKKACim5k/wCeD/mv+NGZP+eD/mv+NADqKbmT/ng/5r/jRmT/AJ4P+a/40AOopuZP+eD/AJr/AI0Zk/54P+a/40AOopuZP+eD/mv+NGZP+eD/AJr/AI0AOopuZP8Ang/5r/jRmT/ng/5r/jQA6im5k/54P+a/40Zk/wCeD/mv+NADqKbmT/ng/wCa/wCNGZP+eD/mv+NADqKbmT/ng/5r/jRmT/ng/wCa/wCNADqKbmT/AJ4P+a/40Zk/54P+a/40AOopuZP+eD/mv+NGZP8Ang/5r/jQA6im5k/54P8Amv8AjRmT/ng/5r/jQA6im5k/54P+a/40Zk/54P8Amv8AjQA6im5k/wCeD/mv+NGZP+eD/mv+NADqKbmT/ng/5r/jRmT/AJ4P+a/40AOopuZP+eD/AJr/AI0Zk/54P+a/40AOopuZP+eD/mv+NGZP+eD/AJr/AI0AJD/qz/vt/wChGn1FF5mw/uXPzN3X1PvT8yf88H/Nf8aAHUU3Mn/PB/zX/GjMn/PB/wA1/wAaAHUU3Mn/ADwf81/xozJ/zwf81/xoAdRTcyf88H/Nf8aMyf8APB/zX/GgB1FNzJ/zwf8ANf8AGjMn/PB/zX/GgB1FNzJ/zwf81/xozJ/zwf8ANf8AGgB1FNzJ/wA8H/Nf8aMyf88H/Nf8aAHUU3Mn/PB/zX/GjMn/ADwf81/xoAdRTcyf88H/ADX/ABozJ/zwf81/xoAdRTcyf88H/Nf8aMyf88H/ADX/ABoAdRTcyf8APB/zX/GjMn/PB/zX/GgB1FNzJ/zwf81/xozJ/wA8H/Nf8aAHUU3Mn/PB/wA1/wAaMyf88H/Nf8aAHUU3Mn/PB/zX/GjMn/PB/wA1/wAaAHUU3Mn/ADwf81/xozJ/zwf81/xoAdRTcyf88H/Nf8aMyf8APB/zX/GgCzRRRQAUUUUAFFFFABRRRQAUUVVl1TT4dTh02a+to764QvDavMolkUdSqZyQPUCgC1RRRQAUUUUAFFFFABRVS+1fTdMkto9S1C1s3upBDbrcTLGZnPRVBPzN7DmrdABRRRQAUUVVvtU0/S1hOp31tZieUQxG4mWPzHPRFyRlj6DmgC1RRVO91fTdNmtodR1C1tJbuTyrZJ5lRpn/ALqAn5jyOB60AXKKKKACiiigAooooAKKKKAI4f8AVn/fb/0I1JUcP+rP++3/AKEakoAKKKKACiiigAooooAKKKKACiiigAooooAKKKKACiiigAooooAKKKKACiiigAooooAKKKKACiiigAooooAKKKKACiiigArI8W/8iVrf/YPn/wDRbVr1l+J4ZLjwjrEMEbSyyWM6IiKSzMYyAAB1JqKnwP0Lp/GvU+ZPhZYfBTVfDOkaf4uj83xRdzGF4916u9mlIjGY8IMgr/XvXs+tfEi90nxdL4P8F+EJ/EN1pdokt2BfJbrBGQNoUuCXOCOOvPfmuP8AhZ44vvA/w507QNW+H3jia7tTKXe20VmjO6RmGCzA9GHanfFS0i1XW57u28A+LI9f+yodL13RQQS5XIWbafkCsdpyC2AcYGK1m9dNvL8DKC3v/Wo/4j+MvFi+PPAkdh4UuUWWU3UFpLqMcTXkvlDdC45EZTd1bIOeK6C81bT5/jN4Ni1/wfHB4jvNNkkW6N/vNhhXJi2qNkn8Q3cY3HFYfi6w8W6anwx1/VdI1DXbzRC/9qx6dH58wd0QZwvU/Kcnpkdea1NTtdU1j49+BdfTRdRt7IaVMbhpbdsWrMkmEkYZVW5AwTRFJO396X5O39f0x6xv/dX5/wBff6Wgf47ai1rrN7ZeBLu60/Qr6S21G7S/QLEitgOoK5dupKgfKMZbni9Z/GmWXXNEW+8JXljoHiC4+z6Zq8tyhMzE4UtCBlASRjJ6c81zOgeHdbh+FfxTtJtHv47m+1C8e0ha1cPcKy/KUXGWB7EZzU+q+H9Zk+Hvwlto9Ivnn0/U7J7yJbZy1sqj5mkGMoB3Jxioh9m/93/ybf7v+HKn1t/e/Db7zrfFnxL8QeHb3Umsfh/qOoaTpKhrzUpLpLdSuMlolIJlUDuO4IOK5H4pePdXv28BXPhfR5brTNRv7W9tpftqQm7l5xbMv8PUZY5XP0rH8YW/jzxHr/ijTNWt/Gmd00ekw6MEg014Np2+dIf9ZkdV5J5HU4F3VtC16y+FnwwvodA1K8m0C8guL2xgt2Nyijr+7POeP1FEdYqT7x/F/p/w9xy+Jpdpfl+p3usfEzUtIh0XTX8JT3Hi7VkeRNChvoyIVUnLPPjaBgZzj1HamWXxfsotB8QXXirSbnQtS8OhDf6c8izN8/8Aq/LcYD7uADxyfTmuJ+JfheTxV4i8N+OdS8F6tq+kNZG21DRFDR3sHzMUfYjBictnAPbnGeKc/wAOrLxB8NfFMHgn4fap4XnlEBtv7UncS33lvvZPKd2KYxwehyOaHezb8/lr/l6grXS9Pn/XysReNvF+u+Kta+HdxrXg+40C2l123ns5pLtJhOhZeoABRsEHBH8q7r9obQX1f4UXN7bA/atHnS+iZeoCna35KxP/AAGuQ8Qal4k8cTeADH4F1/To9I1e1a+lu7UqEYFclV5YxgKSXIAHA717vqenwatpN3p12u6C7heCRfVWUg/oadRWi+Xu2vklYUH7ycuyv97ueE/FfxBefEPwD4O0Hw+d974ihOoTIp6LDEWZT/wPP4pVfxh4zn8W/s6+FtOs5C+qeIbmDTJFz8xeNsOT9WVPwarHwD8DeINL8W6hd+KrK6gj0O2bTNNNzAyK6tK7s6Ej5h15HZ6r+EvhvrVl+0HJbXdjdL4Y0a7udTsJXhYQF5lTaquRgkHbwOmw1XuuVukve+57fOItYq/WOn3rf7zvLnxzceHtTTwR4A8J3HiW60OziW7C3aWsdsm0BF3uDuYgZx/PnGJ4v8e+FvFHgvw1rOqeF21QS64lkbO6uGgexuRkNu2g78Y+6eCCM+lc94w+H9lpvxZ1rWPFfgbV/F2i6wEmtZdH8x5bWUDDIyRuvB9T6DHepPEHhGQfDnwvF4Y8DanoiHxNFdy6dukupI0AI81+WKAgLkHGP1Kg3Kzlu2r+vMr/ANb9bhJKN4x2Sf8A6T/X5HdeI/itqdj4j1fSfCfg648RHQ4lk1Kf7clssO5dwC7gS5wDwOeOhrzfxl49v/Ftl8OfFNx4amswdeZrWzguVuJLpFMfK8Lglgy4PpnvS+NYLW/+M/idm03xdNYm3gt7iTwX8/nts+dLrqM4+XbwcDkc5rU1E6d4qsfhhcfDzSb9tG0nWhFNELZy1kEZN3m4zt9SxODnOaVPVRfW8fz3/K34lT0bXSz/APSdvzO20P4o6tqPiDVPDereDZtK8Q2tib20sG1CORbxegUSgBVJJA7gc56VzfwO8UeKtXvtaW/8Ou2n3Ws3UtxqTakjfZJNoPkCLG5gMAbhxz7VtXOkak37UNnqq6fdHTl0BoWvBC3kh97Hbvxt3e2c1Q+Djax4a1jXfC2seGdXgM+rXN6mpG3/ANEKHbtxJnknHbPb3wQ3v3T/AAl/lr8hS2a81+X+eh7BRRRQAUUUUAFFFFAEcP8Aqz/vt/6EakqOH/Vn/fb/ANCNSUAYPi/Tte1bSYbHw3qMemPNcIt3d5/ex2/8flfKR5h4AJwBknriuPtI7vwl8YNG8P6XruratZ6lYzzX9rqV410bYIB5cys2WXc2VxnB9K6X4geKNS8LeGzcaFod7rOozv5VvDbW0kyxk/8ALSTYCQg9uT0HqOY+HFzY6deObzTvEl14i1Y77/Vr/RLiFHYDIQMygRxjGFXgdKI73/rb+mEtv677/wBfkdj4v03XtY023sfDupLpYmuVF9dq2Jkt+d4h+UgOeACcY5PWuR05bvwt8Y9O8OaZrmqatY3+mzXN9baldtdNaFCBHIrtllDHK4zg/lV7xD8RNVt/A0eqaD4P16TUryZoILO606QtAQcebKse4hO4xy3b1FL4bT6fp108U2neI7jX9VbzNQ1jUtFngWZwpO3eyhUQYwq8AcDqaI/F/Xb9N/X8CW39dH/SKfiyxk0mz1LWPG/j3UNMv7iWX+yLTS79oo0Rf9WiwgAzPyN2Q2c44HNd74RudWm8E6Vc+KFEOqNZo94CAu19vJIHAPcjtzXGal4p1GfSNS0Pxr4Dv9U1BXkjgWw05p7O7Qk+WwkJIj4xu3EEdfatzwr4X1Sz+Dtp4a1m5xqJ017WSQPu8osrALnvtBA/4DSu1B28rfc/x7j0c1fzv+H4dimfi/ov2dtRXSdcfQlkMZ1xbIG0ABwXzu3lM8btmK1df8c/2C0kg8Oa1qVlHALhr+yWAwBMZJ3PKp4HJOMVwMOpa1b/AAhPgF/B2tHXRp7aUCloTZklCgm+0fc24O7rnPGKXxI13EdB8DappOu3Ph7S7KA6pc6fpc866i6IoWBWRSNmRuY98BfWm97J+j773+79bCXdr1X3f1+J6h4W8QweK/DNnrdpaXdpb3iGSKK8QJJtyQCQCRggZHPQiub+J0kl/HoPhWGRox4g1JYLko21jbRqZZQD2yFC/RjWxbeK45bjRre20HW1h1MSBZX09oksxH2mDYMecfLxzWL8RG/s3xF4M8QScW1jqpt7huyJcRtEGJ7AMV/Om7cyt3X5iV1F97P8mVvid44XRPsnhbR7t7XWNUQ5nht5J2sbccNMI4wWZuCFAHXkkAVp6ZfjXPho6fDfXlvbqOI20F/qUkkjpKMBml3gvvGScMOuOMVj3LXngz4ra3r17omp6rp+t2tskFzptqbl7VolYNEyL8wVshsgYzVbQrTxXZ2njHxbomhpbX2s3cNxZaRqHyO8UahWLgNhJHG4gE8HGalaxd/61tb7tfxKeklb+tL/AJ6FOdJPD3jnQNK8LeMdY13W2vVTWLC7vjdRra7cyyOh+WEjK7cbeuADXpHim31y78OXNv4Vuraz1SUKkVzcglYQWG5gADlgucAjGcZrzrX7ifx/rXhv+w/Cer6XqVlqMN3c6pqWnm1+ywp9+MSNzIWzt2rkHqeK6zVvHdzY+H9ZvrPwnr9zc6dcm1gtfsTbrx+0ke3JMX+3jp2zxTfwa9/8tvL/AIIl8Wnl+u/n/wAA5nUbK98C+OPCNtpHiTW9Vm1e7a2vLHU71rlZYQhZ5gG/1ZU4OVwOcV3vifxRYeFNNju9QS4maeZbe2trWLzJriVs7URe5OD1IHHWvPPAWoRxa4dZ8UaV4jvPFGqMsMl3JoNylvZRk8QxFk+SMZ5Y9eSa2Pi8kt/ZeH9H0vA1u71WOTT380xGIxKXdxJghSEyOVfOcbT2HdJJ9/8ALT5fn5ArNtrt+V9X/W3mSW/jmw8aa1e+B7/wx4i0+a4snNyb23jREiZSNxZZG68gEZ5+laHwu1S71HwLBBqkplv9Mnm025kPV3hcpuPuVCk/WuX8KT3vhn4lTW/jO0ml1XVdPaVdXfU47lBDByY9iwwiJRuznbyT1rf+EaSTeCptWkVkGtald6lGrDBEcspKfmoB/Gmv0/G+n4X+4T/X8La/jb8DuaKKKQwooooAKKKKACiiigAooooAKKKKACiiigAooooAKKKKACiiigAooooAKKKKACiiigAooooAKKKKACiiigAooooA8/1b4PaRqGvXuq6drviLQZtQfzLyLR9RMEdw/dmXaeT7V1XhnwzpXhDQYdI0K38i0hJbBYszsTkszHkknvWtRQtFZA9XdhRRRQAUUUUAFFFFABRRRQBHD/qz/vt/6EakqOH/AFZ/32/9CNSUAFFFFABRRRQAUUUUAFFFFABVTVNLsdb0ufTtVtkurO4XZLDIOGFW6KAEACqAOABgUtFFABRRRQAVl+IPDWj+KdPWy1+xS8gVxIgYlWjcdGVlIZT7gg1qUUAc1p/w78LaXbX8NrpQb+0YTb3Uk88k0ssZGChkdi+32BxXQ28EVrbRW9tGsUMSBI40GAqgYAA9AKkooAKKKKACiiigAooooAKKKKACiiigAooooAq+TH/zzX/vkUeTH/zzX/vkU+igBnkx/wDPNf8AvkUeTH/zzX/vkU+igBnkx/8APNf++RR5Mf8AzzX/AL5FPooAZ5Mf/PNf++RR5Mf/ADzX/vkU+igBnkx/881/75FHkx/881/75FPooAZ5Mf8AzzX/AL5FHkx/881/75FPooAZ5Mf/ADzX/vkUeTH/AM81/wC+RT6KAGeTH/zzX/vkUeTH/wA81/75FPooAZ5Mf/PNf++RR5Mf/PNf++RT6KAGeTH/AM81/wC+RR5Mf/PNf++RT6KAGeTH/wA81/75FHkx/wDPNf8AvkU+igBnkx/881/75FHkx/8APNf++RT6KAGeTH/zzX/vkUeTH/zzX/vkU+igBnkx/wDPNf8AvkUeTH/zzX/vkU+igBnkx/8APNf++RR5Mf8AzzX/AL5FPooAZ5Mf/PNf++RR5Mf/ADzX/vkU+igCGKKMocop+Zu3uaf5Mf8AzzX/AL5FEP8Aqz/vt/6EafQAzyY/+ea/98ijyY/+ea/98in0UAM8mP8A55r/AN8ijyY/+ea/98in0UAM8mP/AJ5r/wB8ijyY/wDnmv8A3yKfRQAzyY/+ea/98ijyY/8Anmv/AHyKfRQAzyY/+ea/98ijyY/+ea/98in0UAM8mP8A55r/AN8ijyY/+ea/98in0UAM8mP/AJ5r/wB8ijyY/wDnmv8A3yKfRQAzyY/+ea/98ijyY/8Anmv/AHyKfRQAzyY/+ea/98ijyY/+ea/98in0UAM8mP8A55r/AN8ijyY/+ea/98in0UAM8mP/AJ5r/wB8ijyY/wDnmv8A3yKfRQAzyY/+ea/98ijyY/8Anmv/AHyKfRQAzyY/+ea/98ijyY/+ea/98in0UAM8mP8A55r/AN8ijyY/+ea/98in0UAM8mP/AJ5r/wB8ijyY/wDnmv8A3yKfRQAUUUUAFFFFABRRRQAUUUUAcF4+1T4iaJHqGq+GV8MPo1jaNcOuoC4NwdilnACEL245HvWb8OfFHxE8V6fpniHWl8K2/h66SSSUQC4W5RV3KPvEoPmUZyema634g/8AJM/E3/YJuv8A0U1eG6vcXMP7JHheOOSSKzuLxIr90yMQGWUnJ9NwWlHr8vxbG9bfP8LH0DpnibQdbklj0bW9O1B4RmRbS7jlKD1IUnFcr4d+Kuja9461vQhqWlpDZyQRafKLxN187qS4Tn5sNgfLmuH8eaJoHhjxx8OZvAtnZ2V7c36xFbBQv2m1baGL7fvAgn5jnIJ61b+Gfh/w8nxg8eq2kaYrWF9bmxBto82x2uf3XHycjPy46VUbN+Wv4Nf5/mTLSN/T8b/5Hq1z4n0Gz1VNLu9b06DUJCAlpLdxrKxPQBCcnP0rj/EHinWbH48eF/DtrebNKv7KaW5t/KQ+Yyq5B3Ebh90dCK8j8e6h4f1vwf4m1Hwl8O42sWvGM/iW5uo45FuPMBYxq2XKk/wqQPm6CuuWeW6+NnwuuLiRpJpfDpeR2OSzGFySfxpQ1ab/AKvFv9Bz0Ul/WjX+Z23xX8c6l4F0nSLrSILSZ77U47SQXSMwCMGJI2sOePf6V1V94j0PTJ5odS1nT7SWCITSx3F0kbRxk7Q7AnhSeMnjNeYftF/8i34a/wCw9B/6C9V9W0PS9f8A2qlttb0+31C3j8PiRYbmMOm4OQCVPB4J60o3enm/wimDstfJfjJo9Sn8W+HLaO0e58QaXCl6u61aS9jUTjplMn5h9M1bu9Y0ywuo7a+1G0tp5UeSOKadUZ1QZZgCckAck9q+atC8JaFcfCn4mXFxplvLPpl7cw2U0ibntkj+ZVRjyoyTnHXPOa19TtbPXPEXwXt9fRLu2udL/fJcHKynykIDeuSBwevSnH3mkutvxTa/IJe6m30v+DS/U93tfE2g3umT6lZa3p1xY22fPuoruN4osDJ3ODgcepp9xr+j2mn21/datYwWd2VW3uZLlFjmLDKhGJw2RyMda+evEdjZaV4/+JWneFbeGDS/+EXZru3tFCxRzALgBVGAcE8e7Ve8dXtrN8AfhvHFcRM7XdhhQ4ydkTK3HseD6GiPvW87fi2v0FK8b/P8En+p6HpvinWbj9oTWPDU15u0i20lLmK28pBtkJjy27G4/ePBOOa7Gy8TaDqWoyafp2t6dd3sWfMtoLuN5Ex1yoORivKJbVb79o7xlaPd/Yln8L+WbrOPJBEY3546Zz+FY3g6yHw/8ReHdA1zwtoF5d3aTHRvEWlOGeZthOZARubhgN3QZGM4zST91X8/nrL/ACKktXby/JHuE/iXQrXVk0q61rTodRkICWcl2izMT0whOTn6Vp18neEvCOveMPh3q10Y/BBM1zKb7U9ZaddQtZd2SxkAIT1HY9wea+nvDcF5beFdLg1O6ju7yOziSe4icskrhAC4Y4JBPOe9VbTXy/ElvWy8/wADTooopDCiiigAooooAKKKKAGQ/wCrP++3/oRp9Mh/1Z/32/8AQjT6AMLxd4ph8J6TFcvazX11dXCWlnZwEB7iZ/uqCeAOCST0ANZWleN9SPiu18P+LPD39i3d/C8tjJFerdRT7AC6bgqlWAIOMEH1rpdY1iw0DSLjVNYuo7Sztk3yyyHgD+pPQAck8CuL8L2GpeMPFsHjnXbZ7CztoHh0TTpBiREf708vozgABew96I7/ANdtPx/rQJbf1/W39aolb4g6xqM2oTeEvCT6zpmnTvby3b36QNNIhw4hQqd+OmSVBPArqvDuvWXifw7Za1pbMbW8iEibxhl7FSOxBBB9xXl/iaw134d2tzpngzxBCz+Ir9zpulS2PmTxSyHMhSXeAI1yWLMjbfxr0XwX4bi8H+DNM0GOXzTZw7Xk6eY5JZ2/FiTRHWN35ffbX9AlpLTz+7oYg8aeJNR1zV7Tw14VtdQtNLu/sb3Vxq32cvIEVmwnlNwN2Ovar3iHxjcaI2labb6T/aPiHVATFp0NwFRAoBkdpWXhFzjdtyeMD0wfEngbT9F8O+INd0nxFrelXJafUzNDqbiFZuWOYs+WykgAggnHGaytA1S7vvil4M1nX0EE2seFGjTI2g3G9JHAB6Hac49KI62Xpf7m/wA0EtLv1t96X5M7Pw54yn1PxBdeH9f0htF1q3hFysH2gTxzwk7fMjkAGcHgggEVU8X/ABLsPBfi7Q9I1e2ZbXVVfdf+ZhbYgqo3Lj7pLDLZGKoakRe/tD6IlmQz6fotw94VP3FkZQit7kgkD8ag8YWFrqnxs8K2OoQJcWtxpWoRyxOMq6kKCDQteV97/hzf5f1sN6c3lb8bf5nWeMfE/wDwiegx6kLT7YHu4Lby/N2f62RU3Zwem7OO9b9eCeMby98K6FD4E1ySSeJdRs5dDvn5NxbLcR5hc/8APSPI+q4NexX154ki1URado2nXNhlc3E2pvFIB/F+7EDDjt83PtTVnG67/ov1uJ3Tt5fq/wDgGzRXi2uaBF4S8Qal4l8a6F/b1hLqQuItdtb51utPQsojjMeVIVWOP3bHI6jtSXel3vjT4oeKodU0HT9fi0t4ILS01HVZbZbWN4w29I1icEucnecEYwKlapf12/zG9Gz2qivFNQ0rWraHwZ4M8Y3mNL1DU7pJxBeySeZCqloLZ5iFZuu3oM7RXqPh7wloXhVrlfD1itglxtaWGKRvLyMgEITtU+pAGcc5xVeZPl/W7X6G1RRRSGFFFFABRRRQAUUUUAFFFFABRRRQAUUUUAFFFFABRRRQAUUUUAFFFFABRRRQBX1CwttV0y50+/j821u4mhmj3Fd6MCGGRgjIJ6Vn2fhLQrHwovhqDTYjoyxmMWcxMqlSSxBLkk8nPJrYooA5Pwz8LvBng/Um1Dw9oUNrdsComaSSVlB67S7Hbn2xU1x8OfCd14xj8VT6NGdajZXW6Ejr8wGAxUNtJx3IzXTUUX1T7B5dziH+Dfw/l1C9vZPDNs096rrMTJJj5/vFV3YQ89VAI7VtL4K8PprOlaqthi90e2+yWMvnSfuYtpXbjdhuCeWBNbtFC02B67mP4j8KaL4ttra38QWX2uK1uFuYV8102yAEBvlIz1PB4p3/AAi2j/8ACW/8JN9j/wCJx9m+y/afNf8A1Wc7dudvXvjNa1FH9foBztt4C8NWmj6vpdvpuyz1qV5b+Lz5D5zP945LZXP+yRXD+NfhcNb8a+CLW30VbnwtpVtNa3aPOMRRlAqD5m3noORkjGc161RSsrp9v8rfqF9Gu5z/AIc8B+GPCemXOn6Bo8FrbXeRcIS0hmGMYZnJLDBPBOOT61iQfBP4eW28weGoVZ5Vl3efKWVlORtO/KjPYYB7iu7oqru9+odLGHJ4M8PzeIL7W59Njlv9Qtfsd1JI7MssPHyFCduOB2rO8O/CzwX4T1g6poGgw2t6QQJjJJIUz12h2IX04xxxXW0UlpsD13OL1X4QeAta1x9X1Lw5by3sj75HWSRFdvVkVgpJ75HPeuxhhitreOC3jSKGJQkcaKFVFAwAAOgA7U+ihaKyDd3CiiigAooooAKKKKACiiigBkP+rP8Avt/6EafTIf8AVn/fb/0I0+gDE8T+D9E8Y2cFr4itHuobeUTRKtzLDtcDAbMbLkjPfpVTS/h74e0bUor/AE+K/W4hJKGTVbqVeRjlXkKng9wa6aihabA9dzL/AOEb0n/hKP8AhImtN+q/Z/sy3DyO2yPOdqqTtXJ6kAE0t/4c0rU9c07WL60Et/pe/wCyTeYw8reMNwDg5HqDWnRQBx5+FHgk3puToUfzTeebfz5fs5f+95G7y/8Ax2tzXvDWj+JtOWx1yxS6gjcSRjJRo2HRkZSGU+4IrUoo6WDrcx/D3hPRPCsU6aFYrbG4ffPK0jyySntukclmx2yeKsXGg6bd6/Z63cW2/UbGOSK3m8xhsV8bhtBwc4HUGtCijzAzNd8N6T4ltoINcsku47edLmEMzKY5FOVYFSD/AI9606KKAOVk+GfhGXWTqkmjqbg3H2op58vkmbr5hh3eWWzznb15q1r3gXw54lv4r7V9PL3kSGNbmC4kt5Nn90vGykj2JIroKKOlg63MCbwL4Yn8Lp4dl0a2OlRncluARtbrvDA7g3J+bOeTzUvh/wAIaH4XNw2iWXky3JBmmkmkmlkx0BeRmYgdhnAraoo8w8gooooAKKKKACiiigAooooAKKKKACiiigAooooAKKKKADyZf+eif9+z/jR5Mv8Az0T/AL9n/Gp6KAIPJl/56J/37P8AjR5Mv/PRP+/Z/wAanooAg8mX/non/fs/40eTL/z0T/v2f8anooAg8mX/AJ6J/wB+z/jR5Mv/AD0T/v2f8anooAg8mX/non/fs/40eTL/AM9E/wC/Z/xqeigCDyZf+eif9+z/AI0eTL/z0T/v2f8AGp6KAIPJl/56J/37P+NHky/89E/79n/Gp6KAIPJl/wCeif8Afs/40eTL/wA9E/79n/Gp6KAIPJl/56J/37P+NHky/wDPRP8Av2f8anooAg8mX/non/fs/wCNHky/89E/79n/ABqeigCDyZf+eif9+z/jR5Mv/PRP+/Z/xqeigCDyZf8Anon/AH7P+NHky/8APRP+/Z/xqeigCDyZf+eif9+z/jR5Mv8Az0T/AL9n/Gp6KAIPJl/56J/37P8AjR5Mv/PRP+/Z/wAanooAg8mX/non/fs/40eTL/z0T/v2f8anooAg8mX/AJ6J/wB+z/jR5Mv/AD0T/v2f8anooAqxRS7DiRPvN/AfU+9P8mX/AJ6J/wB+z/jT4f8AVn/fb/0I1JQBB5Mv/PRP+/Z/xo8mX/non/fs/wCNT0UAQeTL/wA9E/79n/GjyZf+eif9+z/jU9FAEHky/wDPRP8Av2f8aPJl/wCeif8Afs/41PRQBB5Mv/PRP+/Z/wAaPJl/56J/37P+NT0UAQeTL/z0T/v2f8aPJl/56J/37P8AjU9FAEHky/8APRP+/Z/xo8mX/non/fs/41PRQBB5Mv8Az0T/AL9n/GjyZf8Anon/AH7P+NT0UAQeTL/z0T/v2f8AGjyZf+eif9+z/jU9FAEHky/89E/79n/GjyZf+eif9+z/AI1PRQBB5Mv/AD0T/v2f8aPJl/56J/37P+NT0UAQeTL/AM9E/wC/Z/xo8mX/AJ6J/wB+z/jU9FAEHky/89E/79n/ABo8mX/non/fs/41PRQBB5Mv/PRP+/Z/xo8mX/non/fs/wCNT0UAQeTL/wA9E/79n/GjyZf+eif9+z/jU9FAEHky/wDPRP8Av2f8aPJl/wCeif8Afs/41PRQAUUUUAFFFFABRRRQAUUUUAFc34u+IPhjwILQ+KtT+wC83+R/o8su/bjd9xTjG4dfWukopagedQfHz4a3NxHBB4k3SSuERfsFyMknAHMddF4d8cab4m8Qa7o9hBex3GhziC5aeHYjsc8ocnI+U9cdj05rz/8AZ2/5B3i//sYJv5CqF98RfFMNn8WHj1Ta3h6eJNMP2eL/AEcM7A/w/NwB97NF0ld/y3/L/MfK27edvxa/Q9yorwG98YfE3SF8I3k3iLTbtfGKJBFbtpyomnyOE2yAg7pCA2SCcZyMYxW1o/j3xL4S8S+MtD8aalH4hXQtLGqQXkdqls8i7R+7KpwMlgM84wfXhy929+l/w1f4aiWtrdbfjovx0PZKzfEHiDTPC2h3Gsa7c/ZbC22+bN5bPt3MFHCgk8kDgV842/x61i2t7PXrnxrYX88k6m68LJozxrFEWwQlyVyWA55OPduh9Y+PrB/gXrzDoywEf9/46U7xjzedvyHGzmok9j8dvhtqF5Ha2/iiFZJDhTPbzQp+LugUfia9AVldAyMGVhkEHIIrkNO0HTfE3wf0rS9at457SfR4FYSKDsPkrhgexHUHtXh3hj4tar4V+Bmj2kd1HBdT6pNp9vqN1E0qWtugRjJtAJYr5mAMHgdDjFVKylKPVf52JjeUVLv/AJXPpu8uksbC4u5QxjgiaVgo5IUZOPfisnwb4ssfHHhW11/SYriG0ui4RLlVWQbXKnIUkdVPevHvCPxTutX1vVvDE/iuHxfaXGkT3EOpJpjWMkMiocxsmACMcgjP9K0PhideX9mzRT4Z1XTdHnE03n32oruSCHz5NzKPu7hxjdx1zjrS7v0/Nr9Bvpbu1+Fz22ivBLHxx4zurnxb4X0rxhY+Ib+w0walput2NtB85UrvhKLuTJyQOpB788ac3xP1jxN4S8BW3hW9FrrniO5CXcyQpIYY4Ri4bawIHPI46U0r7eX43X4Wdwem/n+Cv+p7RRQOnrRSAKKKKACiiigAooooAKKKKAI4f9Wf99v/AEI1JUcP+rP++3/oRqSgAqrBqlhdX9zY219bTXdpt+0W8cytJDuGV3qDlcjpnrXO/EXxXdeFvDsf9jWv23WtSuFstNt+MNM4OCc/wqASfp1Gc1zXge+uPBGrWHhXxHoRsrvWzJcJqy34u/t9yF3SeadiFGx0GCOMA8UR1f8AW/8Aw36A9F/W39fqelXt9aabZyXeo3UNpbRDMk08gREHqWPAqvpWu6Rr0LzaHqtlqUUZ2u9ncJMqn0JUnFcX8V9E1jUD4f1PSdHj8QW2kXrXF3o0kiqLlShVWG7gshJIB9ehrO034k+C7HT/ABFrcHh6bRNb0yzWS/0+6sVtbqRM4QZHDKWYAHtkZHSkmrNvoOzukuv+Z6pRXkNh8W76C90iXV9X8H39tqdzHbPY6PfGS7szIcIx+ciQAkBsKuM5Ga27XxT4x8V6pq7eDINEttL0u7exEuqLM8l3NHjft2EBEycZO498dqqz/ryt/mhXX9f15M9DorhL7xV4m1Hxg/hjwtbaVBeWFnFc6pd33mTQxNJnbFGqlGY8E7iRx2zWNqPxR1vSfB/iZr3TrEeJPDdzbQzxRs7W1wszptdMkMuVY8E8EDr0pf1+NvzD+v1PVKR3WNGd2CqoyWJwAPWuBfxR4v0Lxdodn4otdHfTtcne2jGnmXzbSXYXUMznEgwpGQq+uO1Uh4r8W+LYteuvC9vo0Oh6fNPZL9v80zXjRjEjKynbGueASG6dKmTtFtdL/h/w6+8qKvJJ9bfj/wAMz0WyvrTUrKK8066hu7WYbo54JA6OPUMODU9eF+FfG1/4Z+Fvw/0zT30uw/tS3l36prBYWsGwkhDtK5ds8ZYDjvXsXh+XVJ9Fhk106e942SZNNdmhkXPysu7kZGOMn6mtJRs2l0ZnF3Sb6mlRRRUlBRRRQAUUUUAFFFFABRRRQAUUUUAFFFFABRRRQAUUUUAFFFFABRRRQAUUUUAFFFFABRRRQBwPwq8C6n4GtNei1ae0mbUdUkvIvszswVGAwG3KMHjtn61z158JdduLX4kxpd6cD4rmjeyzI/7sKxJ8z5OOvbdXr9FKyat5W+Wn+Q7tO/nf5/0zzDWfhrrGo2Pw5hgubFW8LTQSXpeRwJAioD5eF5+4cZ29qt3Hw2n1L4meJtZ1SW3fRtc0Yab5SO3nKcKCSCuAODg5PbivRKKqXvN363/FWf4CXupJeX4O55R4e8IfFTw5p9n4dsfEfh/+xLJwsV89rI955IOQhQ/u+nHXOO9dX8T/AArfeNfhxqnh/SpbeK7vBH5b3LMsY2yq5yVBPRT2rrKKUveVmEfdd0eQjwn8Xr3wvB4YutY8K6Vpi2yWkl5pyXElz5QXbxvwuSByRj2xV/Wvg1bL4H0LSvCF7/ZupeHbgXen3k6798uct5mOzHBOBxgcY4r0+im23r13+4SVtDhNJ0r4j339oDxlqmgLbzWMlvDZ6VBJtaRhgSNJJ8wx0wMjn2rirj4K+In+Enhnw4t7pMt/ol9JdS21y0rWV2GkZgrkKGOA3p3I969wopf8D8Hcf/B/FWPK/APwv1bwv8RLjxLqB0GCG70v7NJZ6NatbxQy71OETHK4X7xO4k9MVzvwX8IWI+KHi/xBp7NLpOn3s1jpmR8qszbpdnsOFBHUGvduvWqmm6Vp+jWn2XSLC1sLfcX8m1hWJNx6naoAyaadpX8mvvf/AA4mrq3mn9xbooopDCiiigAooooAKKKKACiiigCOH/Vn/fb/ANCNSVHD/qz/AL7f+hGpKAOY8b+FbnxJa6dc6RdxWeraReLe2Us6F4mcAgo4BztYEgkcjrWZaeGPE2t+L9L1vxrNpcEWjCR7Oy0tpJBJK67TJI8ir0GcKB3613VFC0B6nP8AiWDxYZ7S48IXelgRbhcWepRuEnBxgiRMshGD/CQc89K5aX4a6h4qutc1Hx3c2SXmp6aNLhh0veY7WEP5gbc4Bd9+D0AGMd69JopWX9eY7vocRoun/EC2msrXVW8MNaW7BZr2KOZp7hF9IztVHPc7mAPY9KpWvhXxl4U1TWE8G3GiXGl6pdvfLHqhmSS0mkxvA2AiRMjIBKntnvXolFPrf+v60JskrI4O98KeJ9M8Xv4m8MXWlXF5f2cVtqlrfCSGGZ4wdssbJvKnkjaQRjvmsjUPhhrWp+EfEv26/sZPEfiO5tprh03pbQpC6FY1OCxAVTyRyT0Fep0ULR3/AK3v+Y9/6+RzHizw1ea7rnhe8tJIEj0jUvtc4lYgsnlOmFwDk5YdcfWue07wZ4v8Oy6zpPh+80b+wtTupbqKa6WU3FmZeXURqNrgHpll6856V6RRSsrNd7/jb/JDu7p9v0v/AJs850nwn4t8O/DrRPDthH4c1IWtu0F9baj5vlS5YlSrhTxzyrJz6itz4d+E5/BvhZtPu5bd5prqW6eK0Urb25kbPlRA8hF7fjXVUVV2233JsrJdgooopDCiiigAooooAKKKKACiiigAooooAKKKKACiiigAooooAj+0R/7X/fB/wo+0R/7X/fB/wplFAD/tEf8Atf8AfB/wo+0R/wC1/wB8H/CmUUAP+0R/7X/fB/wo+0R/7X/fB/wplFAD/tEf+1/3wf8ACj7RH/tf98H/AAplFAD/ALRH/tf98H/Cj7RH/tf98H/CmUUAP+0R/wC1/wB8H/Cj7RH/ALX/AHwf8KZRQA/7RH/tf98H/Cj7RH/tf98H/CmUUAP+0R/7X/fB/wAKPtEf+1/3wf8ACmUUAP8AtEf+1/3wf8KPtEf+1/3wf8KZRQA/7RH/ALX/AHwf8KPtEf8Atf8AfB/wplFAD/tEf+1/3wf8KPtEf+1/3wf8KZRQA/7RH/tf98H/AAo+0R/7X/fB/wAKZRQA/wC0R/7X/fB/wo+0R/7X/fB/wplFAD/tEf8Atf8AfB/wo+0R/wC1/wB8H/CmUUAP+0R/7X/fB/wo+0R/7X/fB/wplFAD/tEf+1/3wf8ACj7RH/tf98H/AAplFACRToEP3vvN/AfU+1SfaI/9r/vg/wCFQw/6s/77f+hGn0AP+0R/7X/fB/wo+0R/7X/fB/wplFAD/tEf+1/3wf8ACj7RH/tf98H/AAplFAD/ALRH/tf98H/Cj7RH/tf98H/CmUUAP+0R/wC1/wB8H/Cj7RH/ALX/AHwf8KZRQA/7RH/tf98H/Cj7RH/tf98H/CmUUAP+0R/7X/fB/wAKPtEf+1/3wf8ACmUUAP8AtEf+1/3wf8KPtEf+1/3wf8KZRQA/7RH/ALX/AHwf8KPtEf8Atf8AfB/wplFAD/tEf+1/3wf8KPtEf+1/3wf8KZRQA/7RH/tf98H/AAo+0R/7X/fB/wAKZRQA/wC0R/7X/fB/wo+0R/7X/fB/wplFAD/tEf8Atf8AfB/wo+0R/wC1/wB8H/CmUUAP+0R/7X/fB/wo+0R/7X/fB/wplFAD/tEf+1/3wf8ACj7RH/tf98H/AAplFAD/ALRH/tf98H/Cj7RH/tf98H/CmUUAFFFfNPgGaw8S2mrXHjL4s69ol3DqcsMNsviRbcGIAEELJk9SRkccUt3b+un+Y+l/66/5H0tRXC6v420n4cwaT4dl/t7xJqUsBMMNtF9svJo1zmRzlc9Dz7dOK5P4l/FmaDwnoV14d0/Xrb+0b6LfN9iMZVVkIeA5P+sbaQFHUZ5p6X072F0u+1z2aivJvFet+HPEV74E1LxFpnijSrqXVimnWrxrbusoZRmdC2Qh4IK84z61o6p8cPD2l6nq9h/ZWvXlxo8xjvBZ2IlWNB1lLBsBO2SQfaj1/rb/ADD+vz/yPSKK84X45+FH1Kzijg1ZtPvJ1t4tZNkVsjKR9zzCQcjoeOPpzWn4r+J+leFNYOltpWt6vexwfaZotKsTN5EXZ3JIAHB5BPTnFD03Ba7HaUV498UPiwifCi11fwd/aLjVmUQ6hbQfLbbZFDpI38Dn5lA7849a6qT4p6TY+D117W9M1rSfMuPssFhfWRS7uZMAgRxgnIOeDkDg0d/LT+vvDt5nb0Vx3hz4naJ4glv7ee31HQ7zT4Dc3FnrNt9nlSH/AJ64yRt98/0ryP4w/FDSfGvw9S30jTNajtm1KIwahc2JjtbnaWBCSZOT7EA8Gjdpd7fi7B0v/W1z6NorkPije3WnfCXXrvT7ma1uYbItHNBIUdDxyGHINct8BvG9/r3hubQ/E00z61papIZLly0k9vIN8chJ5PDYz6bfWhatrsL7Kl3PWKK+eIPiFrXij9o3STp1/eQ+GPtU1jbxRTssN2YoyXcqDhvmYEEjpt9K9G1/4y6D4f1a9s5dM129i05xHf3tnp5e3tGPZ3JGOoPAOc8ZoWsVLuN6Sce39foeg0Vyd/8AEfRNO1zQNPnW6MHiBA1hqSov2ZyRlVLbtwY5XHy/xD3xZ8O+NtO8Ua5rGnaRBdyJpE3kT3rIogeXuiNuyxHfgD35GXZ/15B/X3nR0V5Xpmr6lJ+1FrGlPqF22nR6IsqWZnYwq+YvmCZ2g8nnHc1ofGAeHPsPh5vFR1by/wC2IVtf7LkVT5xzt37iPl46j5h2pLW3n/nYHo2u3+Vz0Sivn/XPG2ra98cpNKlj8bWWl6YqCOx0WAJI7+YAZZsE5gb17jHTJra8E/FW/wBY+KXiCxutD8SvZzXFtb2sJsfl035SGM43fu9x+bPPA9qI+8lbr/nYJe7e/S34ns1FeTfHHVdX8KyeGPFGmahewWVlqKxahbQzssc8bEH50Bw33WHP96sT47+NtdsNZ0iy8HXlxG1hbHWL420pUPCHVVDYPK/eyDwcikmrfO34Xv8AdqOzvbyv+n5/me6UV498T/FN7ro8CaN4U1O6sZPEl1HctPZzNFILfaCfmUg4w+f+A10Ot/GLQNE1e806HT9a1f8As3jULnTLIzw2R7+Y+RjABzjPQ9wRT9e7X3WuLe1u1/v2PQKK8w8Wal4Q1nxj8PNTubjVLia8neTSJdPkVYGJCEmYMQwHI4HPUH0qbXfjl4e0S71GOPSde1S20yXyby+0+xD28MgOCjSMygEHj0o6a+f4Bvsek0V4B4z8b2V58Rfhr4rbT9UtrSSO7dLWa1/0l8/KoEak5LHG3B5DA13tr8YdJ1HQ9curPRtdXUNGVTcaTNZbbtQ3RvL3H5R1PPAGSOmVe0eZ+f4B9rlXl+J6FRXl/wAEfHV/4q8J2ttq9hrT3kcUksmq3dti2uP3pAWOTPzEAgYwMbT6V6hVSTTsJNMZD/qz/vt/6EafTIf9Wf8Afb/0I0+kMKKzdf1G90rRJ7rS9Km1a8XCw2kLqhdicDLMQAozknnAycVyvww1vxJqz+JLfxfc2817p+pmBUtYwsUS+WjbFOAWALHlsmhatrt/wP8AMHokzvKK8w+K/jzWNJ0/UNP8FSKmo6dbC81G9aMOtnF/AmGBBkc9AQcLk+lelLMEsxNM2Ase9mPbjJNK6tcOqXf/AIH+ZLRXl2jXvjrxt4bl8WaN4gi0qK4aSTTNJaxjkjkjRiF852G/L7eqkYzxXZ+CfEyeMfBem66kXkm7izJFnPlyKSrr9AwNVYDeorkX+KfgxNRNk2uRhlm+zmbyZPs4k/umfb5YP/Aqua3480Dw7ftZ6rNeRzKgc+TptzMoB/2442X9aV9Lh1sdFRWdoOvab4n0SDV9EuDc2NxkxSmJ492CVPyuAeoPauQ8M6xr2raN4o8T6cr6hLcXUsGjafJKEh2QExqeSAC7hmY55AFD0umC1/I9Aory7U7/AMZeELvQJ9R8UwazdalfxWtxo32GKMbZD8xhKfP+7HOWLDAycVfl1PxF4s+IGu6Fouu/8I/Z6CkCu8VpHPNcySoXz+8BVUA44GSc80en9Wt/mgPQqK8+8Man4g8X6Fqemy68dO1XRNWksZtSsbWJluggGDskDKpO4ZA6FeODis4y+LbT4qaN4dtPGd5qkaxNfass9haqsVuDhVykYIZ246ggc0LVpd/8r/kGyb7f52/M9SorM1/xJpPhjT1vddvVtYXkESZVnaRz0VUUFmPsATXLv450Dx7a6r4b8J67dwa19ldkZLS4t3t2GMMS6LjkjjOSM0m9HboO3c7uisDwN4gfxR4H0vV50CXFxDidQPuyqSrj/vpTW/VNWdiU7q4UUUUhhRRRQAUUUUAFFFFABRRRQAUUUUAFfLvwv8SfC/RtP1uD4gwaZJqLavM8Ru9Ka6YRYUDDCNsDcG4z/OvqKils7/10/wAh9Lf11/zPEPiRrngbUNQ0XxF/wkOs+Hr57AyaZrljZymGWMscRMu3LHqdvy8Hk8gVkeLNY8Rav8BfC2v+LbaY3FrrsFzcyi32MbdS4WVkHTII7AHI9a+hqKa0273+53E9d+1vwseI/EbxDp3inWPhfq+izNNZXGvfu5HiaMth0BOGAPUVH4U58R/GnP8Aeb/0XNXuVFJpWkl1v+Nv8hp6p9rfg3/mfMt8Af2SfC2R01VMf9/5a6zx78RPEEHxJvPC8Wuf8ItawwxtZyRaM2oT6k7qDtRcFcZyO3I6+nt1FVL3m77Nt/ekv0/4BMdF8v1b/U+Xo7O6/wCGR3UW8rva6wZJ1CfMgWb5iR2x39K6X4qX9p440Pwn4x8P3Gqy6FpV/Il7c6ajw3MCnZmVNy5G3afmx3r3yihu/wCD+5JfoPr9/wCN/wDM+crbQvDXi638RSeCPEXi/wAT6suhzQJd6ozPBhiD5Ado1beecL05PWsfxV430nWv2f8ARfDmnQXn9paVJax6hD9kdVtSmUJdyNo3N0GSeecV9S0ULRr5fg2/1D/g/ikv0OJ+Lv8AyRnxH/14H+YrzvW/AniS/wDB/hHxJ8PMJrEuhxabfASLH5lvJCAHySOVP4/dx92veqKmybd+tv1/O4JtJLtf9PyseIaj4YtPB3xG+E2hWABjtFu1Z8YMjmMFnPuSSa5rxv4/8SeI7jxboM+tNozWvn28OgW+itcy3sKg5d5SMRqV53AjA5A6Z+lKKHeSs/P8Rq0XdeX4XPnnWJF8T/CvwB8PtKiSbWdTtre588gn+z4YxzNx0PUD1G7viuw+BeoJpujah4G1C2jtNb0C5cXCrx9pRmyJhnk5yBn02+oFerUVfN70n3v/AMD7vxI5fdS7W/r+tvvPANc8aaN4F/ag1fVPEMskVrJo8cCtHEXO8+WRwPZTUvxP8aaN468I+FtT8PSyS20fiiCBmkiKHcFJPB9mFe9UVMdLX6O/43Klre3VfpY8q0P/AJOk8Tf9gOD+cdZng7xDYeGvj1400jWTPb3mt3tu1gnkOwmARucgEAcjk8fka9ooojpb5r73cJap/L8FY5T4n+Hf+Ep+Get6Wq7pXtmkhH/TRPnX8yoH415b8CNIm8aaH4h13xEvmC+s4tDiJ/54xwhXxn1+U/UGvfaKSS96/Vf1+Gg23pbp/X5q583fAvSdU1H4mSjXRuHguyk0yHP8MjSuB/46XH0ArMgsNI8JeI/E+leP/FPi/wAOTT38txarpM7pb6jE/RgFRtzHoSTjkDqDX1JRTd3a/Zr73dv7xbXt3v8AdofP2oaZp+kax8GbPR01GOyW7uHhTVEC3ChmRsOAAAck9B0xXNX9/ocHirxn4c1fxveeEtFudXc3Gk/2c1yboZBZ1mCkxhiOmOmM5r6mrylfg9rlha32k6D4/urDw/fSSPNp76bDNJiT74EzHcM884/OjW/3/i1/l5+gLRL5fhf/AD/4JleIJdNl+L3wobQZkn00W062skbbg0YjAXn6Cn20Uk/7RHj+CBS7y+HkVUX+JikYFeq+HNAsvC3hyy0TSlcWllEI495yx7kk+pJJP1rTokk9L/zf+TBFtPm8o/geSfs9+JtNu/AFp4ZieYatpSSG8geB18rMz4G4jGeRxnP6163RRVSlzO4kraDIf9Wf99v/AEI0+mQ/6s/77f8AoRp9SMq6lqdlo+mzahqlzHa2kC7pZpThUGcZJ/GvLvht4w0G/wDFnjCy07W7M3mqau8tgA24yqIF+dR3A2n8jXrdFHV+lvy/yB7W87/n/meJ+LPB3iTwp8HvEkMmt6TfRTxyXF9O2mSrc3TswJYyeeRnoB8uAABivRV1qKxj0zw74m1K3fWNYilS2+yWckaSBVyeCz7SFI6tz29K6eik1dWewXd01ur/AI2PIPBnjnTPAPgGPwv4k8238QaOJLdNOWF2kvDvYxmEAfOHBHI6d8V0fgfwvqmjfBSHRJj9n1aWynYjOPKlmLuB9VLgfhXeUU5e8nzbsF7rVtl/X4HhkHirQIPgS3gmWGRfEY01tOOh/Zn+0NdFSMhMcgsd+7p3zmrPibxXZ2tnofw41vXodJKafB/wkF7JNtYRiNQYIz3eTuey565r2qim3dtvrv8AK/8An+gkrJJdNvw/y/UzfD91pF74etJfDclvJpYj8u2a2/1YVflwvsMY/CuE8A6peaB8HbpbDS21TUdCuru3msIn2PIyTsSAcHnYwYDHPTvXptZmn6BY6XrOp6nZiRJtUaN7lN/yF0XaGC9iRjJ74FJ3bf8AX9dRrRJHk3iXXPC/ijWdJ1P4dFpfGk15BuktY3SWOEMBKLkYA2BRtIf2xW98U7LRba8tp7Gwnm8Y6uv2LT1s72a2aUd2lMTrmNBySfQDjt6dRRZWt5/1bt/wWF3e/kch4c0TSfhV8N2imm/cWEL3V7ckYM0mMu2PfoB6YFVfhdpV3/ZV54p1yPZq/iSYXkqHrBDjEMX/AAFMfiTXc0U7u7b/AK/rT7hW0S/r+tzzf4sNdDUvCj6BHJP4ghv3ls4o1WQ+WIiJWMbMoZcFRy6Y3DBzwa3gTVFs/G3iFvFS6haeIb61jvJxd2cdvALaEFB5eyWUHaWOSXzyPSuy8S+D7LxNNZXMt1e6ff2DMba+0+by5ogwAZckEFTgZBBHFZ0fw00prPU49R1DVdTutTtvsk9/eXWZhBnPloVAVFJzkKoznnNSrpP5/lp/wfmU7O1/L87/APDeZD8IIpF+F+mzSoY/tbz3aKRjCSzPIv8A46wNdtUdvbxWlrFb20axQwoI40UYCqBgAe2Kkqna+mxKvu9wooopDCiiigAooooAKKKKACiiigAooooAKKd9mj/2/wDv43+NH2aP/b/7+N/jQA2infZo/wDb/wC/jf40fZo/9v8A7+N/jQA2infZo/8Ab/7+N/jR9mj/ANv/AL+N/jQA2infZo/9v/v43+NH2aP/AG/+/jf40ANop32aP/b/AO/jf40fZo/9v/v43+NADaKd9mj/ANv/AL+N/jR9mj/2/wDv43+NADaKd9mj/wBv/v43+NH2aP8A2/8Av43+NADaKd9mj/2/+/jf40fZo/8Ab/7+N/jQA2infZo/9v8A7+N/jR9mj/2/+/jf40ANop32aP8A2/8Av43+NH2aP/b/AO/jf40ANop32aP/AG/+/jf40fZo/wDb/wC/jf40ANop32aP/b/7+N/jR9mj/wBv/v43+NADaKd9mj/2/wDv43+NH2aP/b/7+N/jQA2infZo/wDb/wC/jf40fZo/9v8A7+N/jQA2infZo/8Ab/7+N/jR9mj/ANv/AL+N/jQA2infZo/9v/v43+NH2aP/AG/+/jf40ARQ/wCrP++3/oRp9JFbxlD9/wC838bep96f9mj/ANv/AL+N/jQA2infZo/9v/v43+NH2aP/AG/+/jf40ANop32aP/b/AO/jf40fZo/9v/v43+NADaKd9mj/ANv/AL+N/jR9mj/2/wDv43+NADaKd9mj/wBv/v43+NH2aP8A2/8Av43+NADaKd9mj/2/+/jf40fZo/8Ab/7+N/jQA2infZo/9v8A7+N/jR9mj/2/+/jf40ANop32aP8A2/8Av43+NH2aP/b/AO/jf40ANop32aP/AG/+/jf40fZo/wDb/wC/jf40ANop32aP/b/7+N/jR9mj/wBv/v43+NADaKd9mj/2/wDv43+NH2aP/b/7+N/jQA2infZo/wDb/wC/jf40fZo/9v8A7+N/jQA2infZo/8Ab/7+N/jR9mj/ANv/AL+N/jQA2infZo/9v/v43+NH2aP/AG/+/jf40ANop32aP/b/AO/jf40fZo/9v/v43+NADaKd9mj/ANv/AL+N/jR9mj/2/wDv43+NAEtFFFABRRRQAUUUUAFFFFABRRXn3xO+K9v8Mr3Qo73TGvLbVJXWWZZ9ht1Qplgu07+HzjI6e9HVLuB6DRVeTULSLS21GS4jFmkJnM+75BHjduz6Y5rh/hb8VIvif/bMltpTWEOnTJHG7T+YZlbdhiNo2nC9Mnr1o6tdg6J9z0CiiigAoqlrN1fWWjXVzpGnf2nexpuhs/PWHzm/u724X6mvK5/jF40tfF9r4Xn+GG3WbuA3ENt/wkEJ3xjdltwTaPuNwTnil1sHS57DRXmUPxF8Tf8ACyvC3hvWNBtdH/te0uJ7u2ef7TLCU8zbtlQhCCEU/dPXFem1VtL/ANdg62CiiikAUUVz2veL7bQvE/h7RJYHln12aWONlYARiNNxY+vUD8aOtg6XOhooooAKKKKACiiigAooooAKKKKAI4f9Wf8Afb/0I1JUcP8Aqz/vt/6EakoAKKyfEniXTvCmjtqOrPII96xRxwxmSSaRjhY0UcsxPQVlaH8QLLWNfXRLzStW0TUZITPBBqlusZuEH3ijKzKSMjIyCPSha7A9Dq6K4q++KGm219fw6fo2uaxBpshivbzTbQSQwOPvKSWBYr1IQNiuq0rVLLW9JttT0udbizuoxLDKvRlI4PPI+h6ULVXQPR2LdFYXiHxbY+HbzTbKaG5vb/VJ/JtbOzVWlfAyz4ZgAijksTxR4n8X6f4VjtFu4rq8vL6QxWdhZReZPcMBltq5AwBySSAPWgDdornfDXjXT/El9eaetrfaZqlkFafT9RhEcyo33XGCVZT6qTTdd8eaL4c8WaN4f1Z5YLnWd4tpio8rcpA2sc5BJYAcY9xR1S7h0b7HSUVkeJvEtn4U0lNR1GOeSFriK3CwKC26RwinkjjJGfatejzAKKKKACiqWp6xYaNHbvqVwIFurmO1hJUtvlc4VeAep79PWrtABRRRQAUUU2SRIo2klYIiAszE8ADqaG7asB1FYnhHxH/wlfhyLWUs3tLa5dzbCRstJCGISQjAxuA3Y7A03w34ssfFb376TBctZ2dwbdb51UQ3LL97yiGJZQeN2AM9M0dbB0ubtFY/iDXp9DjgaDQdV1jzSQRpqRMY8Y+9vkTrnjGelYem/EmC+8YWfhu68N69pl9eQvPGbyKEIsaDlm2SsQM8A45JxQtXYHornaUVi6r4ostI8SaJolzFcNc608yW7xqpRDGm9t5JBHHTAPPpRoHiiy8RXusWtlFcRvpF61lOZlUBnAByuCcjnvg+1G4PT+vX/Jm1RRWF4j8Tp4bvNHF1as9nqN4LOS6D4Fs7g+WSMchmG3ORjIoA3aKKKACiiigAooooAKKKKACiiigAooooAK8a+NOj2niH4jfDzSNSj8y1vZr2GVe+DGgyPcdR7ivZa5/XfBmn+IfEug65ezXSXOhSyS2yROoRy4AO8FSSPlHQilZOcW9k9R3aTt2Z4Kuq+I7vRYvgdJ5o1ZNQ+xzXwU4/s1RvD/8AfPGP7oA71t+BrbQfDH/C17K9v59E0azuorf7VaSFJYE2uoKEAndnGODkmvdBpOnDVzqosbYai0Xkm78pfNMec7N+M4zziuTuPhN4du7bxTBdvezReKJ0nvFaVR5TqSVMZCjGCc87ulDvZ33a189V+ifzbBWuuyf+f+aXokeOeG7jRNE+L3g4+AtG8R6LaamZYL2XVo3WLU025DruY7jzk4AAyvFVPHNyfBPjrXvBPh3VFsvDniGa3fUZFRiNJMrYkAI4G5e390gdq9k0z4N6Jp2raTqkusa/qV/pMpkt7jUL/wA9tu3aI8FcBB1woBz1Jqxb/CTw5H4b17SLtry//wCEgmM99eXUiNO75ypDBQBtPKjHB9arTTra/wA1pp+Yl+dvk9dTqtD0ex8P6FZ6TpMSw2dpEscSj0Hc+pPUnuSTXlmvf8nd+GP+wFJ/7Xr1Hw/o6eHvD9npMV3dXkdnEIo5rtlaVlHQMVABwMDp2rLu/AumXnxGsfGks92NRsbRrSOJXXySh38kbd2fnP8AEO3FD/ic3r+TX6kpe5b0/NHmvxL0K08S/tFeD9K1JpxaXGmziZYJmiZ1AkJUsuDg4wcHkE1g2dpH4Yf4w+ENJaVNFs9L+0WttJKziFnhJbaTk85/QV7VqHgjTdS8faV4unnulv8AS4HghjR1ETK4YEsCuSfmPQiqFx8MNGudW8Uai9zfibxPai0vFEibY0Cbcx/Jwceu6s7Pl5fKX4vQ0v71/OP4bnnPhXwPotn8AbrxU0dxc65c+GLmNry4uZHKxmJsRqpO1VAUAYGcDrWP4yIb9kfwoQQf3tqOPq9e76L4X0/RPB1v4ZiElzp8FsbXFyQzSRkEENgAHIPYCuCf9nnwrJph06XVvEMlkknmWts+obo7M7tx8pCu0Z5BLAnBPfmtm06ja2un9zb/AFIirRV97P8AFJfocj8SvDU1r4+1PxJ478O6l4i8LtbxC0udNvSr6UFUbj5QYdwTk/L3PPAb418I+E/EfxO+HEq20t9Ya/av58k1zLvuYo4V8osd2QcYyRgk9c16P4h+D2i+I9Xu7241jxBaxX5U3tjaaiUt7raABvQg9gBgEe2Kt+KfhZoPiiz0aAzX+ktog2WE+l3HkyQptC7QxB4wo9+OvWs46KN+j/zv+f8AmN6381b8rfkdVpmm2uj6Va6bp0Xk2lpEsMEe4tsRRgDJJJ4Hc1aqvp9munabbWSSzTLbxLEJJ3LyOFGMsx6k45NWKp7iWwUUUUhhRRRQAUUUUAFFFFAEcP8Aqz/vt/6EakqOH/Vn/fb/ANCNSUAU9Tg0xrdbvWIrVorFvtKTXSKVt2UH94C33SBn5u3NcFoJuPiH8QbLxkkL23h7RoZodJaRdsl9JIArz4PSPAwueT19q6Xxv4JtPHmix6XqWo6hZ2qyiV0spEXzsdFcOjBlB5xjGQPSotG8FXGjX1vOPF3iC8htxgWdzJb+SwxgAhYVOB2wR0FEd7v+tNwltocJqT+KfhHoOqW2lx6TqdpqOoyNpPmzyLdGadsiLyghEhBJ53rwMnHSu/8Ah54bm8IfD3SNEu5BJcWsH75gcjexLsB7AsQPpU9x4PsLzxtbeJ76a5ubqzgMNpbyupgti33pEULneRwWJPFWr/Qhf69puqHUtRtzp/mYtbe42QXG8Y/epj58dRyMGhaRt/Vloglq7/1d7/16nlfhbSfEvjO11P4h2Xij+ytQvzLDp8H2KGVLe3ikZVicyAkAlSW2leTk54wvg/xJN4v+KXhLXdUgWB7zwtO0UY+4JxcBZCn1Vc/QiuvuvhVpcs14tlrOu6Zp9/I0t1pljeiO3lZjl+CpZA3cIyg1pav4A0TVNK0yygWfS20jH9nXWnSeVNacbSEbB4I4IIIPeiOlvL/Jp/nfz8glq35/5pr8reXmYGrf8nF+Hvsn+t/sO6+17f8AnlvXZn235rO+IOg6f4m+MfhfSNXgE1pdaVfq69CDhCGB7MDgg9iK7Tw14K0/w1fXmoLdX2p6pehVn1DUZhJMyL91BgBVUeigVYvfC9lfeMNM8STS3AvNNgmghRWXy2WTG4sMZJ44wRRZe6n0v+PN/mF37zXW34W/yPIvFuu6hZ+Ez4L8WSmTWdO1Owe1vGGBqVr9pQLMP9sfdcevPetrxDqmseIPilq+iCHxNJpei29uUg8PXcNq0kkqli8jvLGxGOAFOODn37rxf4F0bxtHp/8AbMcizadcpc208BCyIykHbkg/KcDI9h3ANR694Fstb1qPWbbUdT0XVEi8l7zS51jaaPqEcMrKwBORkZHrR017v8kr/h+q6IOunZfm3/X3HAXF/wCMPD/h3Sdb16XVLa30bXxDIt5cIZLrTZcIHnETFGdCw5P93PfNT2fjDUbb4nT+INR1GUeE764udIt4Wc+VE9ugbzgM4y7JOufYV3p8F2E3gy98N395qOoW19G6T3F7dGadiw+8GbhSOCAAFBHSs/UPhfoOpfDi38FzPdpp1sE8uaORROGU5L7tuNzZbPHO49KHfp/V0k/us/mw06/1u1+L+5WPLNZ02/1zwX4J1vXNU1YXOu+KYphEt/KqwQzM7RhADhSqKu0jBGTjrXcazBezeO9C8AWmt6tZaYunTahc3SXjm7utsgVY/POXABOTg5xgV1niPwVpniXw/Z6TPJc2UdhNFPZz2UgSW2ePhGQkEcDI5B61U1D4eWGpWOmLcapq66lpZY22sJdAXi7j8wLbdrA9CpXGO1PRaLa/4WsvueotXq97fje7/wAjidU1DVvCWpeMPC9vrWo31ovhebV7K4u7hpLizkG9Col+8RkBhk5GODUWo2+seH/AvhnxjF4q1u61KWXT/tMVzdFradJiishhHyjhuGxu4ySTzXc2fw30m203Wre4vNRv7vXLdra91K8nWS5aMqVCqdoVQAxwAuPUGrmpeCtO1TwjYeHbia6W0sTbGJ0dRIfIKlMkqRztGcAd8Yojo033j913f8Gl5g9U7ef5K346nCeMP7VsPGOqah4svPFVp4eCxnT77w/cEQ2aBcyNPEmWJ3c7mV1xXXfEC9P/AApzXrzTrgzh9HleKcYO9WjPz8Y6g54o174d23iG8u3ufEPiCCzvgBdadBfYt5RjBXDKWUEcEIyg10VxpFlcaDLo7QqtjJbG1MS8ARldu0fhxWck3Scf6/r+mXFpVFL+v6/pHnXjOa7j8D+EvB3hu6WwPiDyrAXoUnybdYdzlRkfMVGBz3PI61Npx1nwB448NeGH1ZdW0PVoZoIIZLSGCSyeGPflfKVQyEcYIyOOfXS0rwNLqfw50/w74x3i60qTZaXtnOUlTyiVhnRh919mOOe+fStDRvAFjpWsnV7zVNV1rUxCYIbvU7hXa3RvvCMKqqucDJxk+tayfvykurb+VtPx+6/yM0vdUeyt877/AJetjprm5hs7WW5upFihhQySSMcBVAySfwrgPhjby6/eap8QNRjZJtbbytOjkHMFihxGPYucufXIram8B2114Bk8J3mta1dWs2RNdz3QkuZUL7ijSFfun7vT7vFdLb28NpaxW1tGsUMKCOONRgKoGAB7AVK0bf8AXn/l95T1Vv68v8/uPP8Axx/yWD4b/wDXe/8A/Seuf8I+FW8SeJfH/ma9rGmxJr0qommXZtsOUX5yy8semATt46HNelar4XstX8SaJrdzLcLc6K8z26RsoRzImxt4IJPHTBHNYE3wssTe6rdWHiHxDpj6vdPc3gsrxEVywA2gFDtAxwRhuTljxhL9H+a/yG9bfL/27/M4Wx1Txl4l8E+Hr25l1jUNNsri7t9WfQZ1gvLoxuUikU5UsvByFIJPPNa3ie90zUP2d9am0vVtR1NLM/LLqmftUE8cykRvlVbcrYHOT7nrXZTfD6wj0nTdO0LVNX8PwabGY4Rpd3sDKeu9XDK5zzuI3ZzzWTqvw726DpPhfRg7aTNqYvdZurqffNcBW8w7ifvM7hQT2A6VXW39b7/r5bLQWzT/AA8tdP0O/iYtCjN1KgmnUUUhJWVgooooGFFQ+bJ/zzX/AL7P+FHmyf8APNf++z/hQBNRUPmyf881/wC+z/hR5sn/ADzX/vs/4UATUVD5sn/PNf8Avs/4UebJ/wA81/77P+FAE1FQ+bJ/zzX/AL7P+FHmyf8APNf++z/hQBNRUPmyf881/wC+z/hR5sn/ADzX/vs/4UATUVD5sn/PNf8Avs/4UebJ/wA81/77P+FAE1FQ+bJ/zzX/AL7P+FHmyf8APNf++z/hQBNRUPmyf881/wC+z/hR5sn/ADzX/vs/4UATUVD5sn/PNf8Avs/4UebJ/wA81/77P+FAE1FQ+bJ/zzX/AL7P+FHmyf8APNf++z/hQBNRUPmyf881/wC+z/hR5sn/ADzX/vs/4UATUVD5sn/PNf8Avs/4UebJ/wA81/77P+FAE1FQ+bJ/zzX/AL7P+FHmyf8APNf++z/hQBNRUPmyf881/wC+z/hR5sn/ADzX/vs/4UATUVD5sn/PNf8Avs/4UebJ/wA81/77P+FAE1FQ+bJ/zzX/AL7P+FHmyf8APNf++z/hQA6H/Vn/AH2/9CNSVWilk2HCL95v4/c+1P8ANk/55r/32f8ACgCaiofNk/55r/32f8KPNk/55r/32f8ACgCaiofNk/55r/32f8KPNk/55r/32f8ACgCaiofNk/55r/32f8KPNk/55r/32f8ACgCaiofNk/55r/32f8KPNk/55r/32f8ACgCaiofNk/55r/32f8KPNk/55r/32f8ACgCaiofNk/55r/32f8KPNk/55r/32f8ACgCaiofNk/55r/32f8KPNk/55r/32f8ACgCaiofNk/55r/32f8KPNk/55r/32f8ACgCaiofNk/55r/32f8KPNk/55r/32f8ACgCaiofNk/55r/32f8KPNk/55r/32f8ACgCaiofNk/55r/32f8KPNk/55r/32f8ACgCaiofNk/55r/32f8KPNk/55r/32f8ACgCaiofNk/55r/32f8KPNk/55r/32f8ACgCaiofNk/55r/32f8KPNk/55r/32f8ACgCaiofNk/55r/32f8KPNk/55r/32f8ACgBKKKKACiiigAooooAKKr32oWel2Ml5qd3BZ2sQBknuJBGiZOOWOAOSBWJ/wsXwT/0OOgf+DSH/AOKoA6OisGPxx4bm1vTdJttXguLvVInmshbhpUnRd24iRQU42t1Pat6gAooooAKKKjluYIJIo5po43mbbEruAXOM4A7nAJoAkoqK6ureytZbq8njt7eFC8ksrhURRySSeAB61iQePvB1zOkNt4s0OaVztSOPUoWZj6ABuaPIDoKKKKACiiigAoqOW5ggeJZ5o42mbZGHcAu2M4GepwDxWXd+LNDsPFNn4cu9Qji1e+jMtvalWzIozznGB908E5ODigDYooooAKKKKACiiigAooooAKKKKAGQ/wCrP++3/oRp9Mh/1Z/32/8AQjT6ACiiigAooooAKKKKACiiigAooooAKKKKACiiigAooooAKKKKACiiigAooooAKKKKACiiigAooooAKKKKACiiigAooooAKKKKAK99p9nqljJZ6naQXlrKAJILiMSI+DnlSCDyAa8Pk8I+Gx+1JDpI8P6WNOOh+abP7FH5Jfcfm2Y2598Zr3ivN5PCmtN+0ZF4oFl/xJl0f7MbnzU/1mT8u3O7v1xihfGvn+TB/C/l+aOT8d2t5ovx68F2vgnS9PS4j024S1tX/cW0efMyxCDhRksQBk/jW5pnxP8AEcemeN7HxFYaZF4h8L2xuFNpva2nUoWU4Y7scDuMhu1aniDwtrN98ePC/iK1s9+lWFlNFc3HmoPLZlcAbSdx+8OgNYOoeBPEc/iz4nXkWnbrfXdLW305/PjHnyCLbjG7K892wKm75beUvvu2itOe/wDh/wCCTad4/wDH938OrrxreaboFppkekvcwQbppJ5JlHDEZCrGSCduSwGBnvVzxP8AEzWNF+FvhPxJa21i95rU9pHcRyRuY0EsZZtgDAjBHGSfxrR0nwbqM/wDi8I36rZajJpLWjhmDiOQqQMlSQRnHTNeeap4U+JuveAvDvhm88K2lrFoF3bMZxqUTvdLGCgZVzhQFOTk5PGB1Fau3tHFbXX3Xd/wsZK/s0+tn99lb9Tq9b+I/iu6+JmpeE/B1v4fik0yONmXWp5EkvWZQ22EKR0Bxzn1zWF8R7rxzJ8WfAsdpFocE7CWSxhneZ0WbyV80TMoGVHIUqPrV/4p+FvE3i2+v7CP4f6RqaSqqafrq36wzWgx1kBwzYOTtHH1qz4s8H+L7K58AavodnH4iv8Aw3C0N3E90sLTs0aqXDv7g+/TjrWcfst9/wDP/gGkvtJdn+n/AATq/HX2/wD4Uvrv9sfZ/t/9jS/afsu7yvM8o7tm7nbnOM84rk/hp8O/CHiP4L6KdW8O6bNPd2h826Fsizk7m+bzAN2ffNdv4qstU1/4X6pZLZKmq32lyR/ZFmUhZmjI2BzgHk4zwK898KXPxW8N+BLDwzY/D63juLWHyU1G51mBo1JJO8xLyQM9ATQ95J+X/twukWvP9DmvDfxG17wP8M/EVjDJFqM/hvW0062kvlZwYGdlA4YHjYcc8AgdAK9T8WeNtS0H4h+DtBs4LV7XXJJVuXlRi6BQpGwhgB17g1yF78FdRt/grqOhWd7He+I727XUridjtSecMCUBPQYyATjJ5OM8Pm0b4g+KviH4M17XvC9rpNro00izxx6hHM43KMyHBA2kgAKu4jnParjrOKl3V/Syv+N/zFL4W49nb73b8P8AIu+GPHnj7xh4k1ix0jTtAgsdH1d7W4u7ppgXhDY2oik5kABO4kKcgYHNWPGXjD4k+G4tV1yHQNDTw/pcvMVxcu91dRBgDIhT5UBBzhhkc8Hvd+FXhbWPDeoeMJdas/syalrUt1anzUfzIiThvlJx9Dg15jrnwn8aa/P4gTXPDi6xqU0sslhrtzrhWOOPqkcduDwT0G/CjPoOc9Uo23tf52X9W9epas279/wu/wCv+AbPxE1rxTrHjz4d3nh7+yVtb8m70lLzzc+YYlLeft7APxt565rq7rxFqdn8YPB2ia3pehS395pssl1fQ27NJC4VyywyMcqhK9CMnJrL8R+D/FsGl/DfU9D0ePUdQ8MQhLvT3u0iJJiRThydvBQjIJ6jGa1L7w34k1b4x+DvE91pK29raaZLHqGy5Rxbyuj/ACDkFuWAyBitNFov5pfk7f16Gerjd78q++5lxfEzx14ls9X8QeCNF0WTw5pUskYF/JL9pvBGMsY9p2jjoG9e9O1H4yarff8ACEyeDtKtLkeJ0nUwXsjKYZUwuN4ONqtkn5SSBxgmqGmeGfiJ4D0PWvCHhvw/Z6zpl9NK1lqjX6Q/ZVlGD5kbcsR14/XpUtn8KdY8Pav8NILCFb210F7h9SukkRAjyENkKxDMMkgYBOAM4qY2bintp+Tv/X3FT0Ttvr/wPmdN4H8ceIr7x1rHg7xtZ6bDqlhAl1HNpbP5MsbY7OS2RuHp34459ErzvTfC2s2/7QmseJZrPbpFzpKW0Vz5qHdIDHldudw+6eSMcV6JT+yv66v9A2k/66L9QooopAFFFFABRRRQAyH/AFZ/32/9CNPpkP8Aqz/vt/6EafQBheLvDk3inSYtNTVJtPtWuEe8EAIe5hH3oQwYFA3GSM8ZHeuF0/R9K8OfG7TdK8BwCzgWwmk162t3YwqpA8gspOBJuz74Poa6/wAf3viu08OmPwLpX2/U7h/L80yxKLVe8mJGUOfQZxnrwMHE+H9tqfh2KPTW8E6lbfaXaW+1a7v7WV55SCTJJtkLHJ4wAcZojo7/ANPS33fr8wlt/Xf8/wCux12veF9E8UW8UHiHTLfUYoX3xrOm4K2MZFeX6F4U8OyfF2+1bw5o1rY6X4SgeEvbJt+03rLlhnuETjHZjXey6r4rn8A3l7H4bFp4hKSLbad9tilAbO1GMmQuMfMR6DHWpvBfhSHwr4LtdFdvPl2F7yY8meZ+ZHJ75JP4YpWau1vb8X/l+dh6aJ/0l/n+VzgvBngbTPH3gGPxR4k8248QawJLhNRWZ1kszvYRiEg/IEAHA698113wx1/UPE3wt0zUb1w+oNFJDJI38ckbtHuP125P1rn9GsvHXgnw3L4T0bw/FqsVu0kemas19HHHHG7Er5yMd+U3dFBzjiuv8I+GpPBvgGy0OweO4ubS3YB5CVSSY5Yk4BIUuT74pys1K22lvxEr3V9/6/pdjx3wu/gbfFpvxStL3SvGzXDNLqOoPNE80m87XiuFOFTGABkD0z1Pqep+NdRPia70Hwl4f/tu506NHvpZr1baKAuMogYqxZiBnGMDjJrnfFFt418deE5vC+q+DLWyluysc2pvqEUttCAQTLGg/eE8cAqMZ5NV9T+Hh0jxlf6mPBdj4zsNSih4naBbi0kjjCH/AF2FZWAB4IIOeKPX8P8ALoHW/wDX/BOgm+KVqPDdnd2mk3VxrF5fPpsWj+YiyC6QkOjPnaFXGS/IwQe9WbjxxqGg+HtS1Xxr4dbSo7MIYha3qXYumc7QicKwbcQMFQOevWsG/wDB2rR6V4e1rw54Y0zR9T0W+ku/7Dt7hRHOkibHXzAgUSFcc4IGOpq74j0zxP8AEHwlf2F1ocfh6eGSG409rq9SZpJo3D4dY8qqHGM7iec4of8AXppe349w7f11e/4FmPx9rGnajpkXjHwqdFs9UnW2t7qLUFuRHM33ElUKu3OMZG4Z/Omf8LA12/1XXbDw74PbUZNFuzbyyy6ikEcg2Kw2kqTvOT8uMDAO7nFUtVsvFvj250Ww1jw0PD9jY38N/eXMt9FOZTEciOJYyTyf4m24HbNbngzQ9R0nXPF1xqFv5UWo6sbi1bereZH5SLu4JxyDwcGjWz+f6W/UO3y/X/gGe3xUt7vw94fu9A0m41HU/EBdbPTWlWEqY8+aZHOQqpg84OeMCsHSdZvY/jjrGo+JNKOlyWfhYPLDFOLhWRZy25GABPHYgHIPHQmro3gjxV4d0fwbrFrpC3eqaG97Fd6WbqNGkhnkYhkfOzcBg4J5ziuh0jS/FNx8Ur/xRqGhQ2UE2hC0t4HvUc+asu4JIVBwT1yoYAdyeKH8V1/e+Wjt69PyH0t6fPVf1+JqeEfGOueKBZXsnhUWmjX8RlgvV1KOV1XGV8yPA259FLYPBxXY15T4e8Launj7TtU07wl/whlpEJG1RYdRjkhvsqQqLDGdvDHdvKqfxr1am7W/r+vyJ6hRRRSGFFFFABRRRQAUUUUAFFFFABRRRQAUUUUAFFM8+L/nqn/fQo8+L/nqn/fQoAfRTPPi/wCeqf8AfQo8+L/nqn/fQoAfRTPPi/56p/30KPPi/wCeqf8AfQoAfRTPPi/56p/30KPPi/56p/30KAH0Uzz4v+eqf99Cjz4v+eqf99CgB9FM8+L/AJ6p/wB9Cjz4v+eqf99CgB9FM8+L/nqn/fQo8+L/AJ6p/wB9CgB9FM8+L/nqn/fQo8+L/nqn/fQoAfRTPPi/56p/30KPPi/56p/30KAH0Uzz4v8Anqn/AH0KPPi/56p/30KAH0Uzz4v+eqf99Cjz4v8Anqn/AH0KAH0Uzz4v+eqf99Cjz4v+eqf99CgB9FM8+L/nqn/fQo8+L/nqn/fQoAfRTPPi/wCeqf8AfQo8+L/nqn/fQoAfRTPPi/56p/30KPPi/wCeqf8AfQoAfRTPPi/56p/30KPPi/56p/30KACH/Vn/AH2/9CNPqGKaIIcyIPmb+Iepp/nxf89U/wC+hQA+imefF/z1T/voUefF/wA9U/76FAD6KZ58X/PVP++hR58X/PVP++hQA+imefF/z1T/AL6FHnxf89U/76FAD6KZ58X/AD1T/voUefF/z1T/AL6FAD6KZ58X/PVP++hR58X/AD1T/voUAPopnnxf89U/76FHnxf89U/76FAD6KZ58X/PVP8AvoUefF/z1T/voUAPopnnxf8APVP++hR58X/PVP8AvoUAPopnnxf89U/76FHnxf8APVP++hQA+imefF/z1T/voUefF/z1T/voUAPopnnxf89U/wC+hR58X/PVP++hQA+imefF/wA9U/76FHnxf89U/wC+hQA+imefF/z1T/voUefF/wA9U/76FAD6KZ58X/PVP++hR58X/PVP++hQA+imefF/z1T/AL6FHnxf89U/76FAFqiiigAooooAKKKKACiiigAooooAKKKKACiiigAooooAKKKKACiiigAooooAKKKKACiiigAooooAKKKKACiiigCOH/Vn/fb/ANCNSVHD/qz/AL7f+hGpKACiiigAooooAKKKKACiiigAooooAKKKKACiiigAooooAKKKKACiiigAooooAKKKKACiiigAooooAKKKKACiiigAooooAKKKKACiiigDzW98W63D+0dp3heO9xo02kNcyW3lJ80gL/Nuxu/hHGcVfvfjX8PNOd0vPEsMckdw9s8f2eYusiHDAqEyBn+LoecE4rl9S/5O+0j/ALADfzkrC8AWdtL8Pvi28tvE7vf6gjMyAkqI2IBPoCSR71PNaF+yk/ulYq1527tL743PQPFd/Y3XjDwRcweN7rS4ruZntrK0ieSLVgQhwzL8oGCOWyMNxg81gaZ8ddBufixqWi3OromlbYbbTyLSXdLdFsOCQuRyQOcDiuD0Z2ksfgUXJY/aboZPoJFA/QV2+ha1pmjftNeNItWv7eye+trGO1WeQJ5z+Wg2rnqckcCtYxtNR6Xn+H9feZuV4c3W0fz/AK/E6TwhfWNr4s8bTz+N7nVY7W5D3NneRtFDpI+Y7Vd/lIwDyuBheeea0fD3xW8E+Ktb/sjQdfhur/BKw+VJHvx12llAbjngngZrzHQdetfDOvfGfV7+w/tG2trqPzLQgETBjIu1sgjac85B4zwa5ybxVqHiP4gfDeS5fwpFbRajH9ls9BmaSazjcr+7mI+ReBjaMdDxUQ95xj3Ufx/r/glT05n2b/A9P+GOr6lqHxO+I1rf6hdXNvZ6hEltDNMzpAp8zIRScKOBwPSl0Txfr1r+0FrXg/Xr77Rp1xZi80pWhRCg4JUFVBb+Mck/cql8Jf8AkrXxQ/7CUX/tSsv4/PceEfEfhX4habFum0+V7Ob/AGldSVB9v9Z+dLm5eST7L8V/nYbXNKaXd/g/8ibRPi1qt/8AtC3egTzD/hGppZtPsh5ShftMKqXO/GSScjGcfMtbuneMNZ1f4+6zo8GoLD4a0CwVruPy49rzMAclyNwxuPQgfJ9a4DVPCN14c/Z38OeJYEJ1nSb6PXZnP3m81wWB/Ax5/wB2jw5pGq6z+z5478TW0Uh1TxPcTXQVPvNAj8qPw80Y7g0O8E77wTv5vT/N/cCtNq20mreSu/0S+89c0f4teBtf8QDRNI8RW1xfsxVI9jqshHZHZQrH6E57VQ0S/sbL4neLpbnxvc3a20EclxpN1G0cGmLtB3h2+Q5HPy46nOTyPINFsbDX/C/hGC/+MGmpDBcWz2Wkpo0Cz204IATKMJBzkFzwepzWvrFtaXfj74zRajJNFbf2RC7vAu5xtjVhgEjPIHGR9RTl7r9FL8Ev66+oo+8vVx/Fnoa/Hz4aPciBPEoaRn2ALY3BBOccHy8VyXhz4paZ4W+I/j+Pxx4lmhtY9SjisIJ3lnEY+fcI41DFV6ZwAOntWb8PIJvF2teCb3xF4r8IGPQrXNhp2lzj7ZKzRgBZkb7pGASFHUHjvW38N7O2uPid8WGuLeKVjdLES6AnYwk3L9DgZHtRL3Lvsn+DQL3l81+pr/FD4v6b4Z8D2OoeHtUglvNWKPYOImkV4g6+Y3TAIBIwec9uK7vwx4q0bxlo41Xw3efbLIyNH5vlPH8w6jDgHv6V80rIR+yTpjyE+XBr4JPZF8xj+WT+tfUGk6zpuvWAvdFv7e/tWYqJraUSISDgjIq+Wyfr+if6/f8AcK+q/rq1+n9bl2iiioGFFFFABRRRQAUUUUARw/6s/wC+3/oRqSo4f9Wf99v/AEI1JQBg+L9a1TRtJhPh/SJNV1G7uEtoI8N5URb/AJaysoO2NQMk/Qd6wdP8UeJ9J8dab4c8ZxaTONYglksrrSkkj2PEAzo6OzcYPDA9uldH4q8VaX4O0GXVdamKRKQkcaDdJPIfuxov8TH0/E4AJrkvBdlJrXiX/hMvFl3arq80DQ6fpUU6uNOtzyQcH5pW/ibt06UR3/rtovv1CW39dzp/F+s6tpGm26+HdJbU9RvblbaEMG8mDdnMszKCVRcc+vAHWsPS/FHiXTfHll4Y8ZRaVM2qW0s9ld6WskYDRYLo6OzHochge3T01db+IPhvRfCza+2pQXtmXMMH2KRZmuZc4EUe0/M2eMdu+AKwvBGny6r4ifxh4qvLRtduoDDZ6ZBOrrptvndsGPvSHqzfgOKI7/120X36+nyCW39d9f8AIdeeIPiBdpq2paPpmkabpmnySJDBrCTC4vFjzukBBVY1bHykhvU8V1XhTXk8UeEtM1yOBrZb+2SfyXOSmRyM9/r3rh/EuseDfiH4M1A6rrN3ov8AZjzRXNtLdi3kidDjEsO4rIDtBAYMDnjkkVs+EdQ13VfgnZXssAg1mXSmMSJGIxvCkRkKOFyApwMAZpXtCT7W/J/n/wAMO15pd7/p+R0LeKfD66wNIbXdNGpFtosjeR+dn02Z3Z/Co9T8YeGdFvDaaz4i0nT7kKGMF3fRxOAeh2swOK8dt/8AhCP+GZ5PO/s/+0vsD+Zv2/av7Rwf+B+Z5n449q39f1KTUtI0HwfI9rB4l1DToW1fULlU36fDsAkYlv8Alqxyqj1yeMZqmmm0t/z3/wAvuEmnq9v+G/z+89T07UrHV7FL3Sb23vrSTOye2lWSNsHBwykg4IIrnPBWu6h4lvde1KaVRpEd+1np0QQcrD8skpbqdz5wOwX3ra8P6Zpmj+HrPTtAWNNPtoxHAIm3DA757nOST3Oa8ignv7T9lnU4dL81L6ze5trsxZMkYF0wmP18ssaUtG7f1qtf67hFXSv3/wA/6+R6F4d8T6l4p8TXs2mQW6eFrTMEd5IjGS+nBIZoiGx5S4xuwdxBwaj1XVfGl94mu9M8K6fp9lZ2MaGTUdYildLl3GdkKoVyF/ibd1OMV574j0XwToOkeGrv4ZyWkfiBr62i06SwuN8t3GWAkEmDl02ZyW4GMcdK9A1bX/DniW81nwlq1/d6Pc2Oxpc3f2N5Yyu4SRurZZOx9xgihrTTpdfdb/ME7v1t/X4FzwF4pufFeg3E+o2kVrfWN7NYXSwSb4mkibBZCeSp7Z+nvWfe6v461XXtStfC2nabp9jpzCJbrW4Zj9tk2gnyghXCDON/zZPQVkfCXXrHT/Bstpd6jaRaVBrE2naLdzGOH7dED8hGAodidwyB8xBPXNWfGPjaa/1p/Bng++gt9SZcajqsrDytMjPXqfmmI+6vbqcYol0t2/Rfd+gLrfv+p0XgPxWfGXhKDVZbX7JceZJBcQBtypLG5VtrdxkZH1qzqPjPwvo941pq/iTSLC5UAtBdX0UTjPTKswNL4S0XSvDvhez0nQHWSytU2LIJA5ds5ZmYdWJJJ9zXz/qEls2heKvD9zZ2S6bPrFw0viO6066mljXzcu2YoXRmXkK3mrwBkDkUSfvWX9bf5hFaXff/ADPZ28VTRfETR7eK+t77w/4gspBYyQFWVLiL5yQ6/eV0PqeU4712VebeIm0+bV/hpa6A0Mlu1+bi1aDAU26Wz5YY4xhl/OvSadrL0bX6/rb5CTvZ90n+n6BRRRSGFFFFABRRRQAUUUUAFFFFABRRRQAUUUUAFFFFABRRRQAUUUUAU20fTH1hNWfTrRtSjj8pLwwKZlTn5Q+NwHJ4z3plvoOkWdvd29ppVlBDesz3UcVuircMwwxcAYYkdc5zV+igDMTwzoMS2CxaJpyDTSWsgtpGPspJyTHx8mT6Yp134e0W/wBUh1K+0iwub+3x5N1NbI8seDkbXIyOfQ1o0UAUItC0mCS9kg0uyjfUP+Pxkt0Buev+sIHz9T1z1NV7Xwl4csY4o7Lw/pdskM4uIlhso0EcoGBIABwwH8Q5rXooAp2mkabp93dXVhp9rbXF4we5mhhVHnYZwXYDLHk8n1pdT0nTtaszaazp9rqFsWDGG7hWVMjodrAjNW6KAILixtLuxeyurWGe0kTy3t5Iw0bJjG0qeCMdqLKxtNNsorPTrWG0tYV2xwQRhEQegUcAVPRQBk23hTw9Z6odTtNB0yC/YljdxWcayknqd4GefrWT4z8DQeIvDetWujPDo2q6tEsc2pQQASyhSPlkZcMykDaeeh/CusopNXVhptO54hZ/BnX9S1jSH8Q2fgvR7TS7qO687w5YvFdXLJ0V3YAAHqcd+1ex2uj6ZZXV3c2WnWlvPetuupYoFRrg88uQMseT1z1q5RVXurEpWM2Lw5ocGjPpEOjafHpkmd9klqghbJycpjaeeelWNO0yw0iySz0myt7G1TJWC2iWNFz1wqgAVaopDCiiigAooooAKKKKACiiigCOH/Vn/fb/ANCNSVHD/qz/AL7f+hGpKAM/VtB0fX4Y4td0qx1OOJt0aXlskwQ9MgMDg1SsfA/hPTL2O803wxo1ndRHMc9vp8UbocY4YLkcGt2igDFm8G+GLnT4bC48OaRLZwMzw28ljE0cbN94qpXAJ7kdabp/gnwrpN9He6V4Z0eyu4s+XPbWEUciZGDhlUEcEj8a3KKAMm98KeHtS1JdR1HQdMu71cbbmezjeQY6YYjPFa1FFAGU3hbw+2sDV20LTTqQbcL02cfnZ9d+N2fxqLUfBnhfWL573V/DekX904Aee6sIpXbAwMsyknA4raooArafp1lpNjHZaXZ29laxZ8uC2iWONMnJwqgAckms3RfDMOha1rV7aXD+Rq063L2hUbIpdu13U9fnwpI9R71t0Udbh0sZen+F9A0i+kvdK0PTbG6kBDz21pHG755OWUAmnat4b0PXmjbXNF0/Umi/1ZvLVJin03A4rSooApT6NpdzBawXOm2k0Vm6yW0ckCssDL91kBHykdiOlZtz4C8H3t1LdXnhTQ7i4mcvLLLp0LO7E5LElckk9zW/RQBS0zRtM0SzNpounWmnWxYuYbSBYkLHqdqgDPA59q4i1+G2vaZo8nh/R/Gj2vh9i6JbNpsclxFE5JZFmLY/iOGKEjNeiUUb7gtNjl9J8Cafo/iCy1G3lkaLTdLTTbC2cArboDl3z3ZsKCf9n3rqKKKbbf8AXzFZIKKKKQwooooAKKKKACiiigAooooAKKKKAK/7z/nq35D/AAo/ef8APVvyH+FLRQAn7z/nq35D/Cj95/z1b8h/hS0UAJ+8/wCerfkP8KP3n/PVvyH+FLRQAn7z/nq35D/Cj95/z1b8h/hS0UAJ+8/56t+Q/wAKP3n/AD1b8h/hS0UAJ+8/56t+Q/wo/ef89W/If4UtFACfvP8Anq35D/Cj95/z1b8h/hS0UAJ+8/56t+Q/wo/ef89W/If4UtFACfvP+erfkP8ACj95/wA9W/If4UtFACfvP+erfkP8KP3n/PVvyH+FLRQAn7z/AJ6t+Q/wo/ef89W/If4UtFACfvP+erfkP8KP3n/PVvyH+FLRQAn7z/nq35D/AAo/ef8APVvyH+FLRQAn7z/nq35D/Cj95/z1b8h/hS0UAJ+8/wCerfkP8KP3n/PVvyH+FLRQAn7z/nq35D/Cj95/z1b8h/hS0UARxb9h/esPmbsPU+1P/ef89W/If4U2H/Vn/fb/ANCNPoAT95/z1b8h/hR+8/56t+Q/wpaKAE/ef89W/If4UfvP+erfkP8AClooAT95/wA9W/If4UfvP+erfkP8KWigBP3n/PVvyH+FH7z/AJ6t+Q/wpaKAE/ef89W/If4UfvP+erfkP8KWigBP3n/PVvyH+FH7z/nq35D/AApaKAE/ef8APVvyH+FH7z/nq35D/ClooAT95/z1b8h/hR+8/wCerfkP8KWigBP3n/PVvyH+FH7z/nq35D/ClooAT95/z1b8h/hR+8/56t+Q/wAKWigBP3n/AD1b8h/hR+8/56t+Q/wpaKAE/ef89W/If4UfvP8Anq35D/ClooAT95/z1b8h/hR+8/56t+Q/wpaKAE/ef89W/If4UfvP+erfkP8AClooAT95/wA9W/If4UfvP+erfkP8KWigAooooAKKKKACuc8c+N9N8AeHP7a1mC6nt/OWHZaIrPubOOGZRjj1ro68i/aX4+Ef/cRg/k1Jvb1X5lRV39/5G3p3xm0O51uz0vWNH8QeHJr9tlo+taf5CTtkDapDHnkdeOetehV4V4xuda+L39gaDpHg/XdHtrW+ju7vUdZtPsyxIoI+Tk7idxPHPA47iewsNb8Z/Gbxto0/jDXtM0nT3gkSDTrvy2DFOArEHYv3sqoGSRnpVLV29fuVv839xmn7vM/L73f+vme3UV4vYw618T/iH4qspPFWs6Fpfh2ZbK1g0m58l5H+YGSRsEtyh4Pr2xzyWq/EHxVN8IZEk1m4i1jRvE6aa2owMUNwihsF8YDc9QeCAM0lrbzt9zaX6op6X8r/AHpN/oz6Vorxa/Gu/Dn4s+E4T4r1fXLLxE8tveW+oyiRVcbfnjUACMZcHAHABGcVwkPjXxT4vt9T1+CX4gjUBcONMi0Gz36bEF+4koB+c54bj8+lJO6uvP8AAdv0/G/+R7vqvjr+zPihong/+zvN/tW2kn+1+ft8rYGONm3nO3rkdaPA/jr/AITO78QQf2d9i/sbUXsd3n+Z520n5/ujb06c/WvOU1DUNV+OHw1vtatJLPUZ9Ela5gkjMbJJsk3AqeRz2p3w3do9M+J7JrcegsNdnxqUiqy23J+YhiAfTk96r4b36KX4SS/IW7VuvL+MWz3Givnrwl4xtrH4vaBpPhbx9q/iyx1JJYdSj1R5HWKRVLK0ZdQACR0XPTknIqLR7XxJ4p8N+PNUm8c+ILP+wtQvDZQWt2VUFAWw7feZMAAJkAc461LdlfpZv7ml+o0ru3p+N/8AI9017xLp/hw6cNSdw2pXsdjbqi7i0r5xn0HByak8Ra5D4a8OX2s3dvcXEFjEZpY7ZQ0hUdSASBwOevavnvxL9t8baB8Ldc1LWtUhutUvYrSYW1x5aI6uV89FA+WU/wB76cV9AWHh6Gz8KjQbq9vdUgMLwSXGoTebNMrZzvfAzw2OnTFOSkoy7ptfghRabj2aT/FlOx8b6Rf/AA/HjGJpU0v7I90d6gSKq53KQDjdkEYz1o8L+OdH8WeCx4n09pYbALI0guFCvFsJ3bgCQOmevQivnbTdSvIvh3efCXzSNTk8Srpox1W3Z9zN9NyH8Gq9rOq/8Ky0f4jeBLYsi3UkUukx56x3GFcD6LgfUGiTvdx67euj/J/gxpWaUuj19Ltfmj33wT4ysfHfhtNc0q1vLe0kkeOMXaKrPtOCwCswxnI69jWhr2o3Gk+H73ULLT5tTuLaFpI7OA/POwHCjg8n6H6GvEvGWoap4F0XwN8P9HOrwJPal9QfQoRJeybRllhGeCWLknsPxBZo2v8Aiuy0HxtZlPGMWkQ6LLdaff8AiS3aK7gmVcFRKOuc5HORt4A5yTtaTj0v+AoXvG/W34ntvhzVLrWvDljqWoaZPpNzcxB5LK4OXhP908D9QD6gHiqvjXxL/wAIf4L1LX/sn2z7DEJPI8zy9/zAY3YOOvoa8W1nxTq8Pw9+HUmt+ItY0vQdQgb+19XsZGa58zbmMGTBYZwemc89cVjRW2pX/wAMviHrcniLxHq2hpGLXSX1W5kZLiPzFLSbH/iGAAwA6txnIBU057dL/h/Wg6erhfrb8T6P8P6r/bvhvTdW8nyPt1rHceVu3bN6htucDOM9cCof+El08+MP+EZDudRFl9uKhflEW/Z19c9q8Nki13wH4d+HviW18W6xeDUZrO1udOnlH2QQvGMKkQGFwoxk5JPPBq7/AMIWdS/aW1eyPifxHbY0xbwT21/skG6VT5O7b/qhnhfYc1bS9pbpdr7lchN8l+tk/vdj3uiiioKCiiigAooooAZD/qz/AL7f+hGn0yH/AFZ/32/9CNPoACQASTgDqTWRoHirRPFKXb+H9Qjv0s5zbzSRA7Q4AOAxGGGCOVyPepte0Kz8SaLNpWp+d9knwJVhmaIuoOSpKkHaehHcE1xnwssrbTta8b2dhbx21tBreyKGJQqoogjwAB0ojq2n2v8Aiv8AMHok/P8AR/5HcavrGn6Dpc2pazeRWdnAMyTSthR6D3JPAA5NZWgePPDnia+kstH1EyXccYlNvPbyQSFP7wWRVLL7jIrS1XRNO1sWg1W2W5FncpdwKzEBZUztbAPOM9DkV59Jc6hP8ctEbxdYx6aI7a6j0RrSQTJdMQPM8xztZSEAIXbjJPzHGKF8Vn5/l/mD2uv6/pHqFFcT4y13WG8XaH4S8OXcenXOpxzXNxqDwiVoIYgOERvlLMTjJyAOxqppup+ItO8dXPgvWNcOoG90t72w1UWscc1uwbYysijY2CQwO0ehBoWv4/h/wz+4Hp+H4noNZfiPxDZeF9Dm1XUvMMMRVVjhXdJK7MFVEXuxJAArg9Gl8WXfxM/syx8ZXeqaTpPOryz2NqiNKR8tujJGCW7sQflGB1Na3jwfbPG3gTTJsfZpdUlunBP3nhgZkH/fRz+FHZ9/yv8A1YNr+S/S5va/4z0Hww1tHrd95E90CYbaOF5pnA6kRxhmwPXGKtaD4h0rxPpg1DQr2O8tixQsmQUYdVZTgqw9CAar6hpC2t9d+ING0y3u9ee1W2U3Fw0SvGG3BN2GCjJJ4Xk4z6jzTQPFJ8JeFfHmualalPEsWoCS+07CiKOaRVSBUKk7kOQS2QT83ApJ73/rW39eeg7bW/rQ9S/4SLSz4mPh9LnfqiwfaXgSJ28uPOAWYDauT0BIJ7VfuLiG0tpLi6lSGCJC8kkjBVRQMkknoAK8isB4s+Funw614hj0jU4dUvo/7bmt45Vu1klYKrbyxV1UsAFCqAOB3Nd18SPDt74r+HeraNpciR3dzEvlbzhWKurbSfRtuPxpyuo3/q/9P5/gEbOVun6DdJ+JXhLXNUh0/TtXD3Fxn7OJbeWJZ8dfLd1Cv/wEmuprxrxRrWs+KdW8J+D/APhFp9G1Jb2DUZ3kuIZBaxQH5nTy2Yhf4QzBc9ADzjtfiZ4g1Lw54XhutLmSzE17Db3WoSQ+athC5w0xToccDnjnmm7Wv52/L9dPkSrt/K/5nVXlz9jsZ7kxSTCGNpPLiXLvgZwo7k9qr6JrNn4h0Oz1fTJDJaXkQliJGDg9iOxHQjsRXm/grVtf1b4nXNtaeO28S+HLGyWWWaKxthG07kgRGWNRkgfP8p9jW58LQLay8SabFj7Pp/iC7ht1HREJWTaPoXNCX5X+52/X+rjf62+9X/Q7qiiikAUUUUAFFFFABRRRQAUUUUAFFFFABRRRQAUUUUAFFFFABXI/EvwJ/wALE8I/2J/aP9nf6Qk/neR5v3c8bdy+vXNddRQNNrYbGuyNUznaAM1ynh7wN/YPj/xJ4m/tH7R/bpi/0byNvkbBj7247s/QV1tFHXmJsuXl6f5Hnes/C+/Piy+8QeCfFlx4ZutUQLqEa2aXMc5HRgrEbW6889TjGTng/iz4H0/wP8FNP0fTJp5Wl1yGa4u5W/eTSsr5c+h4GPoOvWvoCihaW+X4O9im73fr+VrnnmjfC+9j8a2viXxh4rufElzp0bR6fHJaJbpb5yCxCnDNg9cD17DFM/CTVtKv9RHgnxzeeHtK1KZp59PSyjm2O33jG5IMf4DIwOTgV6fRQI4mX4dGXx94b8StrU8x0Oxa0MdxEHkusqy72kBGD82T8vNYz/BaCfwx4s0a61qRl8Raib9ZY7fabZt24Ljcd4z16Z9q9Pooev8AXnf8wWjv/Wit+R5ppvwn1KHxH4e1rW/GE2q3Ohs4ii/s+O3h8pk2hFRCNp7ljuzgDAxWh4e+Gf8AYPh3xXpf9ref/wAJFcXE/m/Ztv2fzVK4xuO7GeuRn2ru6KHqmn5/jv8AkC0aa6fpe35nmF18G2l+H3hvw/aeIpLTUPDtz9ptNTS0DAvuZuYi2O4/i7fhXoOi2d7p+i2tpqmpNql3Em2W8eJYzMfXavAq9RTu3fz1FZaeWh57H8JLGP4zv4/+3ZZk4sfI4Evl7PM37vTJxt6nrR4z+Elj4y+IGheJ7i98htLKedbeRvF0qPvUFtw24JPY5Br0KiktOW3TYb1vfrucj478AxeM/wCzru21KfR9Y0qUy2OoQKHMROMhlPDKcDjI6emQaEHw+1240HXrLxJ43vNZuNXs2tFd7RIYLcEEblhU43c8nIzXe0UrKzXcd3dPsfPnxA05vBT+AtJn1y60a20K3lMfiZNPNxEJSNuwwDPJA7k8E8HtoeF5fE3xS0fxT4cvvETav4ent40s/EL6R9l3S7gWVYvl3AYOeeOPWvc6Ke9+bW9/x/rpYW1uXS1vw/rrc4HxB8Mf7d8IeF9C/tfyP+EfntpvP+zbvP8AJTbjbvG3PXqce9Gv/De/v/iJH4u8P+KJ9EumtktbuJbRJxPGrBsAsflzgDoen1rvqKd3e/nf57fkKytbyt+oUUUUhhRRRQAUUUUAMh/1Z/32/wDQjT6ZD/qz/vt/6EafQBV1KG9uNNmi0u7jsrtlxFcSwecsZz1Kblz+Yrj/AAp4I8R+HNfv7+58VWt7BqV011eQLpPlF3KBRtfzW2gYU9D0967qijrcHqrHGX3gXUdX8NWVtrHieefXNOuzd2esw2iRNE+TgGIfKy7TtIPUU7TPBGoN4qtPEHi3xB/bV3p8bpYRQ2YtYYC4w77QzFmI4yTgDtXY0Ubf18gepzPivwe3iC+03VdN1KTSdZ0tnNreJEJV2uMOjxnG5SB6gg8g1n2XgTVIr3Uta1DxKbvxHdWRsrW/FiscVjHnPyQ7jk7vmJLHOB0FdtRStpYdzhfBvgfxF4QgtLFPE9jc6bE7PPENHKS3DNkszSmZjuJOSSDVv4iaVfXOn6ZrOjW73WoaFfx3sdvH9+ePlJY19yjHHuBXX0VV3p5COP1bwZqEvih/EXhbXm0S+uoEhvY5rQXMNwq52EoWUhxkjIPTtUNp8MdPbw1rem67fXGqXevuJdRv2Cxu7jGwoo4QJgFRzj3rtqKXSwa3ucH/AMK/1nVJrCHxf4tfWdMsJknS0SwS3M8iHKGZwx3gdcAKCeTXUaXp+q2l/qc2o60dQguZg9nAbVYxZpj7m5eX+prUoo/r+vuA5nwn4O/4R681PVNSvzq2s6pNvuL1ovLxGPuRImW2oo7ZOeprK+KtjeX+kaUiadeahpcWoRzajFpuftYjUEoYsEHh9udvzY6V3dFJ9PK34D7+d/xPKPD0eow+MV1Lw3beLotBtLGc3trrcsxFzJgGJII52Lhs5y3A6DvXW/DjRb3RvCCNrCbNU1K4l1G9T+5LM24r/wABG1fwrqqKr+vxv/Xoif6/T+vUKKKKQwooooAKKKKACiiigAooooAKKKKACiiigBuZP+eD/mv+NGZP+eD/AJr/AI1ZooArZk/54P8Amv8AjRmT/ng/5r/jVmigCtmT/ng/5r/jRmT/AJ4P+a/41ZooArZk/wCeD/mv+NGZP+eD/mv+NWaKAK2ZP+eD/mv+NGZP+eD/AJr/AI1ZooArZk/54P8Amv8AjRmT/ng/5r/jVmigCtmT/ng/5r/jRmT/AJ4P+a/41ZooArZk/wCeD/mv+NGZP+eD/mv+NWaKAK2ZP+eD/mv+NGZP+eD/AJr/AI1ZooArZk/54P8Amv8AjRmT/ng/5r/jVmigCtmT/ng/5r/jRmT/AJ4P+a/41ZooArZk/wCeD/mv+NGZP+eD/mv+NWaKAK2ZP+eD/mv+NGZP+eD/AJr/AI1ZooArZk/54P8Amv8AjRmT/ng/5r/jVmigCtmT/ng/5r/jRmT/AJ4P+a/41ZooArZk/wCeD/mv+NGZP+eD/mv+NWaKAKcXmbD+5c/M3dfU+9PzJ/zwf81/xqWH/Vn/AH2/9CNSUAVsyf8APB/zX/GjMn/PB/zX/GrNFAFbMn/PB/zX/GjMn/PB/wA1/wAas0UAVsyf88H/ADX/ABozJ/zwf81/xqzRQBWzJ/zwf81/xozJ/wA8H/Nf8as0UAVsyf8APB/zX/GjMn/PB/zX/GrNFAFbMn/PB/zX/GjMn/PB/wA1/wAas0UAVsyf88H/ADX/ABozJ/zwf81/xqzRQBWzJ/zwf81/xozJ/wA8H/Nf8as0UAVsyf8APB/zX/GjMn/PB/zX/GrNFAFbMn/PB/zX/GjMn/PB/wA1/wAas0UAVsyf88H/ADX/ABozJ/zwf81/xqzRQBWzJ/zwf81/xozJ/wA8H/Nf8as0UAVsyf8APB/zX/GjMn/PB/zX/GrNFAFbMn/PB/zX/GjMn/PB/wA1/wAas0UAVsyf88H/ADX/ABozJ/zwf81/xqzRQAUUUUAFFFFABRRXGfFrxhceB/hrqWs2G37aoWG2LDIWR2ChsHrgEnHtUylyq44q7sdnRXj+g/Avw9rHhm11HxfNqGq+Ir2BZ5tUe+lEkTsoOEw23C54yD0/Csfwx8UdW8F+E/Gth4iL+ILvwddxxRSyTeW9zC8vlrufDcjrkgnnHbNXL3W4y3X/AAxK95JrZ/rse8UVxPib4i/8I7c+EIv7L+0/8JLdR2+ftGz7NuC8/dO/G7px0rP8WfEvxB4dvdSax+H+o6hpOkqGvNSkukt1K4yWiUgmVQO47gg4pP3W0+n6f8ONapNdT0aivNtf+MUGmP4UOjaFda1H4ngeW1WCUJIrBVKqVIxyWwTuG3BPOKXQ/ijq+r3evaLceDZrLxRpMC3CaS2oRstyjYwRNgKPvD1HPXrgel/K/wCG/wBwdvl+Ox6NLLHBC8szrHHGpZ3c4Cgckk9hUNjf2eqWUd5pl3BeWsozHPbyCRHGccMMg8ivD/hF4m13VfhrrH9v+GTe6JJHf3E2oy6ip89iSWg8vG8AgkbulYXiHxXcw/Bjwd/whXhM6Vo99qUZCRanuxKs74gJYBm3lN288DoadtUn15fx/rTv80D2flf8P6+XyZ9K0V50fibq+l+IvDOleLvCX9iHX3khEv8AaSXAglUkKh2pht2U5yPvdOK2dO8cHVfidqvhOy07fBpNrHLdah5/CyPgrEE28nBznd2PFG+3n+G4bf13Osorwbxt4Y0jxf8AtSaXpPiK0+2WMmhl2i8148lTIQcoQf1qPwtqmn/DT4v+KtG0vUZ28H6dpX26e3aZpls5QU+VCSeTuxjOTkA5xUpq135/hf8AyG072Xl+Nv8AM99ory3T/jFqBn0q78QeCr3RvD+szJDY6rJeRybmf/VmSIDMYYdyT+NSXXxZ1iXxxrnhXw34IuNZv9JePLrfxwxMjKCWZnXCHJAC/NnnpinZ3t/Wn/Di6X/rU9OorzD9oQsfgbq5ddrFrfIBzg+cnevOPHXhDQPhx8PPDnivwU8+jeJJGtighu5GN3uQF1KMxyO5A45wetEdb36NL7w7W6pv7j6WorzrxN8RvEuh3F4NO+H2oanaabbrPe3z3SW0YBTc3lZBMuBnOOQRjFLq/wAYdNtvDXh/UNC0261jUPEf/IN02NgjuR97exyFCngnnn2yQAtTutS1TT9GsmvNXvrawtUIDT3UyxIpJwAWYgcmrKsroHRgysMgg5BFeFfF/wAQ63rnwQ1xPEfhW58O3Vtd2o2SXKXEcoMgOUkTrjvxxkc9cdzp3xB+1+NbLwh4f0s6k1raJJqt95/lxWAKjav3Tvc/3cj68HBHW68/0uEtLen62O9ooooAKKKKACiiigCOH/Vn/fb/ANCNSVHD/qz/AL7f+hGpKACisTxZYa5qmjLZeHNRTTJpp0W4uyP3kcGf3nl8EeYRwCeBnPpXCaBP9h+KtjpPhDxRqfiHT1gmGux3l8bxLRlGIiJG+5IXyCgPQHgYoWrt/W1weiuerUUUUAFFFFABRRRQAUUUUAFFFFABRRRQAUUUUAFFFFABRRRQAUUUUAFFFFABRRRQAUUUUAFFFFABRRRQAUUUUAFcv8R/By+PPAOo6D5qwzTqGglbokikMufbIwfYmuoopSSkrMabTujx7S/iZ4n8K+Fo9K8T/DzxHdavp1uIvP062E1rOEXAcygnbkDnAbH6VxnhvwhqPjj4J+N/ENpNb3uueKbkT/ZoG/1Qim3+Vz0Y84Hps9a+lKwtD8F6B4a1TUNQ0Kw+xT6i++6Ec0nlyNnO7yy2xT7gCm/ebct3/nf8RL3Ukuj/AK+48Z1a+8R+MtS+HJTwPr+nQ6LqVuL2a8tCgVvkyVXlvLAQneQB0FVvGFv488R6/wCKNM1a38aZ3TR6TDowSDTXg2nb50h/1mR1XknkdTgfRlFEvevfrf8AG3+QR921ulvwv/meAad4c1xL74Ms+jago02GYXpNq4+ykhcCTj5PxxXW6XpGpJ+03r2qSafdJp82iRxR3jQsIXfMfyh8YJ4PGe1epUU5Pm37yf8A4ErCSsreSX3O54Z8Ll1zSfhxr3gnVPCutWt5b29863clsfs8xYEKkbfxscnGAenXmsi48MeIk/Zt8Hww6DqEt/pOrpeXGni3YXAjWWXpGRuJ+Ze3Q56V9FUUXe/X3f8AyXYbs/x/E8n+KMT+NvglNry6fe6Jf6W/9pWsWooIZ4WiY/eGTglckDPUitD4IaTdQ+CpvEesAf2r4mun1K4bGMKx/dqPbbyB23V1fjHwnaeNvDU2h6ndXdtaXDIZTaOqu4U7tpLKeCQM/Stm3gitbaK3t0WOGFAkaKMBVAwAPwojpzef9P8AJfcD1t5f0vzf3ni3jTwBF4y/aM07+39Du77QP7H2yzhZUhEgMhCmVMYPI4z3rqte+EuiRfC3XfDPgvTbfTZNQhBVgxZpJEIZA7sSxGRjk8ZNeh0VNvc5fX87jv73N6fgfNfhPwZ4d87R9Pvvg14hXXYZY0vb2S4mitEKkbplkMu1um7aAAegJr0PwJpGpWfxx+IN/d6fdQWd2bb7PcSwssc2E52MRhse1eo0VV3e/r+Nv8iWvd5fT8Dzv47aZf6v8HtWstJsri+upHgKQW0TSO2JVJwqgk4AzTfBPwe8E6Fa6Vq8PhuOLVkt4pHe4klkMcu0EnY7EKwb0AIPpXo1FKPu3t1HLW1+h8++M4vHWv8AjTxDpWow+M1tjuj0aPQdkFi8ZU83Ex6g8ZHJ6j0FVdN8LeJvDvhn4beLbbQL69n0BLiDUNKWEi5WOSRxuWMjJOGPH+72yR9GUUR91K3l+F/zuOXvN32d/wAbf5HiXxN1XXviF8HtaisvBWu2O25thaw3Vv8A6TcgOC58lcsoXHXkEc+tTeEfDmpfCn4jQ2OkaXfXPhPxFCjOIYZJjp1yqgfOcEqpz1b1/wBk17PRRH3W2uv+Vv8Ag+ope8lfp/ncKKKKACiiigAooooAjh/1Z/32/wDQjUlRw/6s/wC+3/oRqSgDn/GGp67o2m29/wCHtMXVVhuFN7aKCZnt+dxh5ALjggHryOtcZGk3i34q6BreheHNR0aDTEnbUtQ1CxNm9yrptWEK2Gk55yRgY65r1OihaO/9f1/WwPVWCiiigAooooAKKKKACiiigAooooAKKKKACiiigAooooAKKKKACiiigAooooAKKKKACiiigAooooAKKj8iH/nkn/fIo8iH/nkn/fIoAkoqPyIf+eSf98ijyIf+eSf98igCSio/Ih/55J/3yKPIh/55J/3yKAJKKj8iH/nkn/fIo8iH/nkn/fIoAkoqPyIf+eSf98ijyIf+eSf98igCSio/Ih/55J/3yKPIh/55J/3yKAJKKj8iH/nkn/fIo8iH/nkn/fIoAkoqPyIf+eSf98ijyIf+eSf98igCSio/Ih/55J/3yKPIh/55J/3yKAJKKj8iH/nkn/fIo8iH/nkn/fIoAkoqPyIf+eSf98ijyIf+eSf98igCSio/Ih/55J/3yKPIh/55J/3yKAJKKj8iH/nkn/fIo8iH/nkn/fIoAkoqPyIf+eSf98ijyIf+eSf98igCSio/Ih/55J/3yKPIh/55J/3yKAJKKj8iH/nkn/fIo8iH/nkn/fIoAIf9Wf8Afb/0I1JUfkQ/88k/75FHkQ/88k/75FAElFR+RD/zyT/vkUeRD/zyT/vkUASUVH5EP/PJP++RR5EP/PJP++RQBJRUfkQ/88k/75FHkQ/88k/75FAElFR+RD/zyT/vkUeRD/zyT/vkUASUVH5EP/PJP++RR5EP/PJP++RQBJRUfkQ/88k/75FHkQ/88k/75FAElFR+RD/zyT/vkUeRD/zyT/vkUASUVH5EP/PJP++RR5EP/PJP++RQBJRUfkQ/88k/75FHkQ/88k/75FAElFR+RD/zyT/vkUeRD/zyT/vkUASUVH5EP/PJP++RR5EP/PJP++RQBJRUfkQ/88k/75FHkQ/88k/75FAElFR+RD/zyT/vkUeRD/zyT/vkUASUVH5EP/PJP++RR5EP/PJP++RQBJRUfkQ/88k/75FHkQ/88k/75FAH/9k=;" parent="1" vertex="1">
          <mxGeometry x="560" y="690" width="270" height="295.41" as="geometry" />
        </mxCell>
        <mxCell id="bI8uq5raj5t6-0ASxQKG-12" value="Maximum lift weight is 395 g" style="rounded=0;whiteSpace=wrap;html=1;" parent="1" vertex="1">
          <mxGeometry x="605" y="620" width="180" height="60" as="geometry" />
        </mxCell>
        <mxCell id="bI8uq5raj5t6-0ASxQKG-13" value="outer&lt;br&gt;24 mm" style="rounded=0;whiteSpace=wrap;html=1;" parent="1" vertex="1">
          <mxGeometry x="420" y="580" width="120" height="60" as="geometry" />
        </mxCell>
        <mxCell id="bI8uq5raj5t6-0ASxQKG-14" value="" style="shape=cube;whiteSpace=wrap;html=1;boundedLbl=1;backgroundOutline=1;darkOpacity=0.05;darkOpacity2=0.1;" parent="1" vertex="1">
          <mxGeometry x="440" y="40" width="40" height="140" as="geometry" />
        </mxCell>
        <mxCell id="bI8uq5raj5t6-0ASxQKG-15" value="17 g" style="rounded=0;whiteSpace=wrap;html=1;" parent="1" vertex="1">
          <mxGeometry x="520" y="80" width="120" height="60" as="geometry" />
        </mxCell>
      </root>
    </mxGraphModel>
  </diagram>
  <diagram id="xLXPwaB7H1HGDnLV74JK" name="Mission">
    <mxGraphModel dx="771" dy="651" grid="1" gridSize="10" guides="1" tooltips="1" connect="1" arrows="1" fold="1" page="1" pageScale="1" pageWidth="827" pageHeight="1169" math="0" shadow="0">
      <root>
        <mxCell id="0" />
        <mxCell id="1" parent="0" />
        <mxCell id="wprMxs6yPVggJw-_fOM3-9" value="" style="shape=cylinder3;whiteSpace=wrap;html=1;boundedLbl=1;backgroundOutline=1;size=15;rotation=65;" vertex="1" parent="1">
          <mxGeometry x="290.94" y="279.67" width="36" height="85.56" as="geometry" />
        </mxCell>
        <mxCell id="wprMxs6yPVggJw-_fOM3-1" value="" style="sketch=0;pointerEvents=1;shadow=0;dashed=0;html=1;strokeColor=none;fillColor=#434445;aspect=fixed;labelPosition=center;verticalLabelPosition=bottom;verticalAlign=top;align=center;outlineConnect=0;shape=mxgraph.vvd.laptop;" vertex="1" parent="1">
          <mxGeometry x="110" y="571" width="50" height="36" as="geometry" />
        </mxCell>
        <mxCell id="wprMxs6yPVggJw-_fOM3-2" value="Laptop acts as a ground station" style="rounded=0;whiteSpace=wrap;html=1;" vertex="1" parent="1">
          <mxGeometry x="80" y="621" width="120" height="60" as="geometry" />
        </mxCell>
        <mxCell id="wprMxs6yPVggJw-_fOM3-3" value="" style="shape=cylinder3;whiteSpace=wrap;html=1;boundedLbl=1;backgroundOutline=1;size=15;rotation=65;" vertex="1" parent="1">
          <mxGeometry x="350" y="241" width="36" height="110" as="geometry" />
        </mxCell>
        <mxCell id="wprMxs6yPVggJw-_fOM3-4" value="Main airframe &lt;br&gt;acts as a node" style="rounded=0;whiteSpace=wrap;html=1;" vertex="1" parent="1">
          <mxGeometry x="260" y="381" width="120" height="60" as="geometry" />
        </mxCell>
        <mxCell id="wprMxs6yPVggJw-_fOM3-5" value="Nose cone acts&lt;div&gt;as another node&lt;/div&gt;" style="rounded=0;whiteSpace=wrap;html=1;" vertex="1" parent="1">
          <mxGeometry x="500" y="381" width="120" height="60" as="geometry" />
        </mxCell>
        <mxCell id="wprMxs6yPVggJw-_fOM3-6" value="" style="shape=or;whiteSpace=wrap;html=1;rotation=75;" vertex="1" parent="1">
          <mxGeometry x="480" y="291" width="100" height="40" as="geometry" />
        </mxCell>
        <mxCell id="wprMxs6yPVggJw-_fOM3-10" value="" style="shape=trapezoid;perimeter=trapezoidPerimeter;whiteSpace=wrap;html=1;fixedSize=1;rotation=-30;" vertex="1" parent="1">
          <mxGeometry x="270" y="301" width="52" height="10" as="geometry" />
        </mxCell>
        <mxCell id="wprMxs6yPVggJw-_fOM3-12" value="" style="shape=trapezoid;perimeter=trapezoidPerimeter;whiteSpace=wrap;html=1;fixedSize=1;rotation=-30;flipV=1;" vertex="1" parent="1">
          <mxGeometry x="283.99666049839544" y="341.00012701892217" width="52" height="10" as="geometry" />
        </mxCell>
        <mxCell id="wprMxs6yPVggJw-_fOM3-14" value="" style="shape=or;whiteSpace=wrap;html=1;rotation=-90;" vertex="1" parent="1">
          <mxGeometry x="391" y="171" width="26" height="61" as="geometry" />
        </mxCell>
        <mxCell id="wprMxs6yPVggJw-_fOM3-15" value="" style="shape=or;whiteSpace=wrap;html=1;rotation=-90;" vertex="1" parent="1">
          <mxGeometry x="500" y="180" width="26" height="61" as="geometry" />
        </mxCell>
        <mxCell id="wprMxs6yPVggJw-_fOM3-16" value="" style="endArrow=none;html=1;rounded=0;entryX=0;entryY=0.25;entryDx=0;entryDy=0;entryPerimeter=0;exitX=0.145;exitY=0;exitDx=0;exitDy=4.35;exitPerimeter=0;" edge="1" parent="1" source="wprMxs6yPVggJw-_fOM3-3" target="wprMxs6yPVggJw-_fOM3-14">
          <mxGeometry width="50" height="50" relative="1" as="geometry">
            <mxPoint x="280" y="281" as="sourcePoint" />
            <mxPoint x="330" y="231" as="targetPoint" />
          </mxGeometry>
        </mxCell>
        <mxCell id="wprMxs6yPVggJw-_fOM3-17" value="" style="endArrow=none;html=1;rounded=0;entryX=0;entryY=0.75;entryDx=0;entryDy=0;entryPerimeter=0;exitX=0.145;exitY=0;exitDx=0;exitDy=4.35;exitPerimeter=0;" edge="1" parent="1" source="wprMxs6yPVggJw-_fOM3-3" target="wprMxs6yPVggJw-_fOM3-14">
          <mxGeometry width="50" height="50" relative="1" as="geometry">
            <mxPoint x="490" y="320" as="sourcePoint" />
            <mxPoint x="470" y="271" as="targetPoint" />
          </mxGeometry>
        </mxCell>
        <mxCell id="wprMxs6yPVggJw-_fOM3-18" value="" style="endArrow=none;html=1;rounded=0;entryX=0;entryY=0.25;entryDx=0;entryDy=0;entryPerimeter=0;exitX=0;exitY=0.5;exitDx=0;exitDy=0;exitPerimeter=0;" edge="1" parent="1" source="wprMxs6yPVggJw-_fOM3-6" target="wprMxs6yPVggJw-_fOM3-15">
          <mxGeometry width="50" height="50" relative="1" as="geometry">
            <mxPoint x="430" y="351" as="sourcePoint" />
            <mxPoint x="480" y="301" as="targetPoint" />
          </mxGeometry>
        </mxCell>
        <mxCell id="wprMxs6yPVggJw-_fOM3-19" value="" style="endArrow=none;html=1;rounded=0;entryX=0;entryY=0.75;entryDx=0;entryDy=0;entryPerimeter=0;exitX=0;exitY=0.5;exitDx=0;exitDy=0;exitPerimeter=0;" edge="1" parent="1" source="wprMxs6yPVggJw-_fOM3-6" target="wprMxs6yPVggJw-_fOM3-15">
          <mxGeometry width="50" height="50" relative="1" as="geometry">
            <mxPoint x="609" y="301" as="sourcePoint" />
            <mxPoint x="590" y="261" as="targetPoint" />
          </mxGeometry>
        </mxCell>
        <mxCell id="wprMxs6yPVggJw-_fOM3-20" value="" style="shape=flexArrow;endArrow=classic;html=1;rounded=0;" edge="1" parent="1">
          <mxGeometry width="50" height="50" relative="1" as="geometry">
            <mxPoint x="250" y="461" as="sourcePoint" />
            <mxPoint x="160" y="551" as="targetPoint" />
          </mxGeometry>
        </mxCell>
        <mxCell id="wprMxs6yPVggJw-_fOM3-21" value="" style="shape=flexArrow;endArrow=classic;html=1;rounded=0;" edge="1" parent="1">
          <mxGeometry width="50" height="50" relative="1" as="geometry">
            <mxPoint x="481" y="451" as="sourcePoint" />
            <mxPoint x="200" y="581" as="targetPoint" />
          </mxGeometry>
        </mxCell>
        <mxCell id="wprMxs6yPVggJw-_fOM3-22" value="altitude and speed data" style="rounded=0;whiteSpace=wrap;html=1;" vertex="1" parent="1">
          <mxGeometry x="90" y="441" width="100" height="50" as="geometry" />
        </mxCell>
        <mxCell id="wprMxs6yPVggJw-_fOM3-23" value="altitude and speed data" style="rounded=0;whiteSpace=wrap;html=1;" vertex="1" parent="1">
          <mxGeometry x="360" y="551" width="100" height="50" as="geometry" />
        </mxCell>
        <mxCell id="wprMxs6yPVggJw-_fOM3-24" value="&lt;font style=&quot;font-size: 16px;&quot;&gt;Mission Concept 1&lt;/font&gt;" style="rounded=0;whiteSpace=wrap;html=1;fillColor=#f5f5f5;fontColor=#333333;strokeColor=#666666;fontStyle=1" vertex="1" parent="1">
          <mxGeometry x="40" y="39" width="600" height="40" as="geometry" />
        </mxCell>
        <mxCell id="wprMxs6yPVggJw-_fOM3-25" value="seperate recovery devices" style="rounded=0;whiteSpace=wrap;html=1;" vertex="1" parent="1">
          <mxGeometry x="434" y="140" width="153" height="40" as="geometry" />
        </mxCell>
      </root>
    </mxGraphModel>
  </diagram>
</mxfile>
